<?xml version="1.0" encoding="utf-8"?>
<!-- Generator: Adobe Illustrator 16.0.0, SVG Export Plug-In . SVG Version: 6.00 Build 0)  -->
<!DOCTYPE svg PUBLIC "-//W3C//DTD SVG 1.1//EN" "http://www.w3.org/Graphics/SVG/1.1/DTD/svg11.dtd">
<svg version="1.1" id="Capa_1" xmlns="http://www.w3.org/2000/svg" xmlns:xlink="http://www.w3.org/1999/xlink" x="0px" y="0px"
	 width="326px" height="332px" viewBox="0 0 326 332" style="enable-background:new 0 0 326 332;" xml:space="preserve">
<style type="text/css">
<![CDATA[
	.st0{fill:#1D1D1B;}
	.st1{fill:#EF7F2B;}
	.st2{opacity:0.4;fill-rule:evenodd;clip-rule:evenodd;fill:#00A286;}
]]>
</style>
<g>
	<path class="st2" d="M284.6,105c-0.5-11.7-13.6-24.1-25.9-24c-23,0.2-42.1,10.2-58.8,25.1c-9.7,8.6-18.2,18.4-24.4,31.2
		c-0.9-2.6-1.6-3.8-1.8-5.2c-3.9-24-8.7-47.6-20.9-69c-9.3-16.2-21.3-29.6-38.1-38.2c-6.4-3.3-13.2-5.7-19.8-8.6c-2.3,0-4.7,0-7,0
		C80.3,17.3,77.1,22.5,75,29c-1.6,5-1.1,10.4-2.7,15.5c0,5.6,0,11.3,0,16.9c1.2,3.3,1.2,6.6,0,9.8c0,0.9,0,1.9,0,2.8
		c2.1,18.5,2.6,36.9,6.2,55.4c6.3,32.2,16.6,62.6,31.2,91.8c3.8,7.5,8.1,14.8,11.8,22.2c7.3,14.6,16.8,27.5,26.6,40.3
		c3.8,5,6.3,10.3,6.7,16.6c0.7,9.3,5.4,16.2,13.1,21.2c0.9,0,1.9,0,2.8,0c4.2-2.2,1.1-6.2,1.9-9c2.6-0.9,3.7,1.2,5.2,2
		c2.6,1.3,4.8,1.7,6.9-0.7c2.2-2.6,1.9-5.1-0.3-7.5c-1.3-1.4-2.5-2.9-4-4c-6.6-4.5-6.5-10.3-4-17.1c10.9-28.8,26.1-55.1,45.5-78.9
		c20.4-24.9,40.2-50.1,56.2-78.1c3.2-5.6,7.9-11.6,5.1-19.2C282.2,107.3,284,106.4,284.6,105z M266.1,104.2
		c-7.8,15.4-18.5,28.9-28.4,42.9c-19.9,28.1-43.7,53.3-60.1,83.9c-5.9,11.1-12.8,21.7-16.8,33.7c-0.6,1.7-0.8,4.1-3.1,4.1
		c-1.7,0.1-2.6-1.7-3.6-3.1c-26.2-35.6-44-75-54-118c-6.5-28.1-9.6-56.4-9.7-85.1c-1-2.3-0.9-4.6,0-6.9c2.1-7.6,2.7-16,10-21.2
		c2.3-1.1,4.6-0.9,6.9-0.1c19,8.4,29.6,23.8,36.7,42.7c8.8,23.5,11,48.4,15.4,72.8c1.4,8,2.4,16,3.2,24.2
		c0.6,6.4,3.1,13.1,11.6,14.4c3.6,0.5,6.1,6.7,10.2,4c4.5-3,0.1-7.8,0.3-11.7c-0.9-4.6-0.9-9.2,0-13.8c4.8-20.5,17-36.2,33.7-48.2
		c13.1-9.4,26.8-18,43-21.3c2-0.4,4.3-1.9,5.8,0.2C268.8,99.9,267.1,102.1,266.1,104.2z"/>
	<g>
		<path class="st1" d="M58.8,113.8c1.7,0.1,3.1,0.4,4.2,0.9c0.4,0.2,0.9,0.4,1.3,0.6c1.3,0.8,2.2,1.4,2.7,1.8c1,0.7,1.7,1.5,2.1,2.2
			h-0.4l0.2,0.2c0.7,0.7,1.1,1.4,1.1,1.8l-0.2,0.1c-0.3,0-0.8-0.1-1.6-0.4c-0.1,0.1-0.2,0.1-0.4,0.1c0.4,0.7,0.3,1-0.2,0.9
			c0.2,0.3,0.1,0.3-0.3,0.1c-0.1-0.1-0.2-0.2-0.4-0.3l0.3,0.5c0.2,0.2,0.4,0.3,0.3,0.3c0.2,0.2,0.4,0.4,0.6,0.7
			c0.2,0.2,0.3,0.4,0.5,0.6c0.3,0.6,0.4,0.9,0.3,1c0,0.5-0.1,0.8-0.3,0.8c-0.1,0-0.1-0.1-0.1-0.1c0.1,0.2,0.1,0.4,0.2,0.7v0.2
			c-0.1,0.1-0.1,0.1-0.1,0.2c0,0-0.1,0-0.1,0c-0.1-0.2-0.2-0.2-0.2-0.2l-0.1-0.1c0,0-0.1-0.2-0.3-0.4l0-0.7l-0.2,0l0-0.2l0,0.1
			c-0.1-0.2-0.1-0.2-0.1-0.3c0.1,0.2,0.1,0.3,0.1,0.4c-0.2-0.4-0.4-0.7-0.6-0.9c-0.1-0.2-0.3-0.3-0.5-0.5c0,0,0,0,0,0
			c-0.2-0.2-0.4-0.4-0.6-0.6c-0.2-0.2-0.4-0.4-0.7-0.5c0,0-0.1-0.1-0.1-0.2c-0.1,0-0.2,0-0.4-0.1s-0.3-0.2-0.4-0.2h-0.1
			c-0.2-0.1-0.3-0.1-0.4-0.1l-0.1,0c-0.6-0.1-1.2-0.2-1.8-0.3c-0.3-0.1-0.5-0.1-0.8-0.2c0.1,0,0.2,0.1,0.2,0.1c0.1,0,0.1,0.1,0,0.1
			v0c1.1,0.3,2.1,0.7,2.8,1.2c0.3,0.2,0.7,0.4,0.9,0.6c0.1,0.1,0.2,0.1,0.3,0.1c0,0,0.1,0,0.1,0.1l0,0c0,0,0.1,0,0.1,0l-0.1-0.1
			c0,0,0.1,0,0.1,0l-0.1-0.1c-0.5-0.5-1.2-1-1.9-1.4c-0.3-0.1-0.3-0.2-0.2-0.2c0.2,0,0.4,0.1,0.6,0.2c1.1,0.6,2,1.3,2.6,2.1
			c0.2,0.2,0.4,0.3,0.5,0.5c0.2,0.3,0.4,0.7,0.5,1c0.1,0.3,0,0.5-0.1,0.5c-0.2,0.2-0.4,0.3-0.4,0.2c0,0-0.5-0.4-1.3-1.3
			c0,0.1,0.1,0.2,0.1,0.2c0.3,0.6,0.3,1,0.1,1.4c-0.1,0.2-0.4,0.2-0.8,0c-0.2-0.1-0.6-0.4-1.2-0.8c-0.5-0.3-1-0.7-1.7-1
			c0.1,0.2,0.2,0.2,0.1,0.1c-0.8-0.3-1.2-0.4-1.3-0.5c0.3,0.1,0.6,0.3,0.8,0.4c-0.6-0.3-1.4-0.5-2.2-0.7c-0.6-0.1-1.3-0.3-2.3-0.4
			c-0.1,0-0.3,0-0.7,0c-0.6,0-1,0-1.3,0c-0.3,0-0.3,0-0.3,0c-1.9,0.3-4.1,0.7-6.4,1.5c-1.3,0.6-2,1-2,1h0c0.1,0,0.2,0,0.5-0.1
			c-0.1,0.1-0.3,0.2-0.7,0.3l-0.3,0.2l-0.1,0.1l-0.1,0h0c-0.1,0.1-0.2,0.1-0.3,0.2c0,0,0.1,0,0.1,0c0.1,0,0.1,0,0.1,0
			c-1.2,0.7-2.4,1.8-3.6,3.1c-0.8,0.9-1.8,2.2-3,3.9l-0.2,0.3c-0.2,0.5-0.5,1.2-0.8,2c-0.4,1.1-0.7,1.8-0.8,2.2
			c0.2-0.5,0.5-1,0.7-1.5l-1.3,3.5c-0.2,0.4-0.8,2.1-1.9,5.1c-0.7,2-1.2,3.3-1.6,4c-0.3,1.7-0.6,3.5-0.9,5.3c0,0.3,0,0.5,0,0.6
			l0,0.7l-0.1,1.4c-0.1,0.9-0.1,1.8-0.1,2.7c-0.1,4,0.2,7.4,0.9,10.1c0.1,0.4,0.1,0.6,0,0.7c-0.1,0.1-0.1-0.1-0.2-0.4
			c-0.6-2-1-4.4-1.1-7.2c-0.1-2.2,0-4.8,0.2-7.8c-0.3,2.4-0.5,4.6-0.6,6.6c-0.1,2.4,0,4.5,0.3,6.4c0.1,0.5,0.2,1,0.3,1.5l0.3,1.5
			c0.7,2.6,1.9,4.6,3.5,6.2c1.6,1.6,3.7,2.8,6.2,3.6c0.6,0.2,1.1,0.3,1.6,0.4c0.2,0.1,0.5,0.1,0.7,0.1c0.2,0,0.5,0.1,0.8,0.1
			c1.1,0.1,2.2,0.2,3.2,0.2c2.2,0,4.3-0.2,6.3-0.8c2.8-0.8,5.4-2.2,7.7-4.2c2.1-1.8,3.9-4.1,5.5-6.9c0.5-0.9,0.8-1.4,1-1.4
			c0.2,0,0.1,0.4-0.3,1.4c-1.5,3.1-3.5,5.7-5.9,7.7c-2.5,2.2-5.4,3.6-8.6,4.4c-3.2,0.7-6.5,0.8-10.1,0.1c-0.1,0-0.3-0.1-0.6-0.1
			c-0.2,0-0.4-0.1-0.6-0.1c-0.4-0.1-0.8-0.3-1.2-0.4c-0.8-0.3-1.6-0.6-2.3-0.9c-1.5-0.8-2.8-1.7-3.9-2.9c-0.9-1-1.7-2.1-2.3-3.4l0,0
			c-0.1,0.1-0.2,0-0.4-0.2c0.7,1.5,1.6,2.8,2.7,3.9c1.6,1.4,3.5,2.6,5.9,3.4c0.6,0.2,1.1,0.4,1.7,0.5c0.3,0.1,0.6,0.2,0.9,0.2
			c0.2,0,0.5,0.1,0.9,0.1c1.3,0.2,2.5,0.4,3.7,0.5c3.6,0.2,6.8-0.2,9.7-1.2c3.7-1.6,6.8-4.2,9.4-7.8c0.1-0.2,0.2-0.3,0.2-0.3
			c0.1,0,0.1,0,0,0.2c-1.6,2.6-3.6,4.7-6,6.3c0.5-0.2,0.8-0.2,0.8,0c0,0.2-0.2,0.4-0.7,0.8c0.6-0.4,1.2-0.8,1.8-1.2
			c0.4-0.3,0.6-0.4,0.7-0.4c0.1,0.1-0.1,0.3-0.5,0.6c-2.3,1.7-4.9,3-7.7,3.8c-3.2,1-6.7,1.2-10.4,0.8c0.5,0.2,0.8,0.3,1,0.5
			c0.6,0,1.1,0.1,1.6,0.1c2.6,0,5.1-0.3,7.4-1c2.4-0.7,4.7-1.8,6.7-3.2c2.1-1.4,3.9-3.1,5.5-5.1c1.5-1.9,2.9-4.1,4-6.5
			c0.1-0.2,0.2-0.3,0.2-0.3c0,0,0,0.2-0.1,0.4c-1.3,2.9-3,5.5-5,7.7c0.2-0.1,0.2-0.1,0.1,0c-0.1,0.1-0.2,0.3-0.3,0.4
			c-0.1,0.1-0.2,0.1-0.1,0c-2,2.1-4.2,3.8-6.7,5.1c-2.5,1.3-5.2,2.1-8.1,2.5c2.7-0.2,5.2-0.9,7.6-2c2.4-1.1,4.6-2.5,6.6-4.3
			c0.3-0.4,0.7-0.8,1.1-1.3c0.1-0.2,0.2-0.2,0.3-0.3c0.1,0,0,0-0.1,0.2l-0.3,0.4c0.8-0.8,1.3-1.2,1.4-1.1c0.2,0.2-0.2,0.8-1.1,1.7
			c-2,2.1-4.3,3.8-6.8,5.1c-0.3,0.2-0.5,0.3-0.8,0.4c-0.3,0.2-0.5,0.3-0.8,0.4c2.1-0.8,4-1.8,5.9-3.2c1.7-1.3,3.3-2.8,4.8-4.6
			c0.3-0.4,0.5-0.5,0.6-0.5c0.1,0,0,0.2-0.3,0.6c-2.5,3.3-5.5,5.9-9,7.7c-3.6,1.8-7.5,2.8-11.8,2.8c-1.3,0.1-2.7,0.1-4.1,0
			c-0.7,0-1.4-0.1-2.1-0.1l-0.6-0.1l-0.5,0c-0.3-0.1-0.7-0.1-1-0.2c0.4,0.1,0.7,0.2,1,0.3c0.2,0.1,0.5,0.1,0.8,0.2
			c0,0,0.2,0.1,0.5,0.1l0.4,0.1c0.6,0.1,1.1,0.2,1.6,0.2c1.1,0.1,2.2,0.2,3.2,0.2c2.1,0,4.2-0.2,6.3-0.7c4-1,7.7-2.8,11.1-5.6
			c0.2-0.2,0.3-0.2,0.4-0.2c0.1,0,0,0.1-0.2,0.3c-1.6,1.4-3.3,2.5-5.1,3.5c-1.8,1-3.8,1.7-5.8,2.2c-3.2,0.8-6.5,1-10.2,0.7
			c3.4,0.5,6.7,0.3,9.9-0.4c3.2-0.7,6.3-2,9.1-3.9c0.2-0.2,0.5-0.3,0.7-0.4l0.1-0.1c0.8-0.7,1.4-1.3,2-1.8c0.2-0.2,0.3-0.3,0.4-0.3
			c0.1,0,0.1,0-0.1,0.2c-0.3,0.3-0.9,0.8-1.9,1.7c-0.1,0.1-0.2,0.2-0.3,0.2c0.1,0,0,0.2-0.3,0.4c-2.7,2.1-5.7,3.5-9.1,4.3
			c-3.3,0.8-6.7,1-10.4,0.6c-0.1,0-0.2,0.1-0.3,0.1c-0.3,0-0.6,0-1,0c-0.2,0-0.5-0.1-0.7-0.1c-0.2,0-0.5-0.1-0.8-0.2
			c-0.2-0.1-0.5-0.1-0.7-0.2c-1.6-0.5-3.1-1-4.4-1.7c-1.5-0.8-2.8-1.7-4-2.7c-0.6-0.4-1.2-0.9-1.8-1.5c-2.1-1.9-3.7-4.2-4.9-7
			c0,0.2,0,0.3,0,0.3c-0.2,0-0.4-0.5-0.7-1.4c-0.1-0.3-0.2-0.7-0.3-1.1c0.3,1.1,0.6,2.2,1,3.2c0.1,0.2,0.1,0.3,0.1,0.4
			c0.5,1.2,1.2,2.3,1.9,3.4c0.8,1.2,1.7,2.3,2.8,3.3c1.1,1,2.2,1.8,3.4,2.5c2.2,1.3,4.7,2.2,7.4,2.8l0.5,0.1l0.5,0.1
			c0.2,0,0.6,0.1,0.9,0.1c0.7,0.1,1.3,0.1,1.9,0.2c1.2,0.1,2.5,0.1,3.7,0c2.5-0.1,5-0.6,7.3-1.3c0.2-0.1,0.4-0.1,0.6-0.1
			c0.1,0,0.1,0-0.1,0.1c-2.9,1.1-5.9,1.7-8.9,2c-1.6,0.1-3.2,0.1-4.7-0.1l-0.6,0l-0.3,0l-0.4,0c-0.1,0-0.3,0-0.7-0.1
			c-0.2,0-0.4-0.1-0.7-0.1c-0.9-0.2-1.8-0.4-2.6-0.7c-2.3-0.7-4.4-1.8-6.3-3.1c-2-1.4-3.8-3.1-5.2-5.2c-1.3-1.9-2.4-4-3.2-6.4
			c-0.7-2-1.2-4.2-1.5-6.6c-0.2-2-0.3-4.2-0.2-6.7c0-1.9,0.1-4,0.3-6.3l0-0.5l0-0.5l0.1-0.7l0.2-1.5c0.2-1.1,0.3-2.1,0.5-3.1
			c0.4-2.2,0.8-4.4,1.3-6.4c0.8-3.1,1.7-6,2.9-8.7c1.3-3.1,2.8-5.9,4.5-8.3c2.1-2.9,4.5-5.3,7.2-7.2l0.4-0.2l0.1-0.1l0.3-0.2
			c0.4-0.3,0.8-0.5,1.2-0.8c0.7-0.4,1.5-0.9,2.3-1.3c1.5-0.7,3-1.4,4.7-1.9c2.2-0.8,4.4-1.2,6.6-1.2c2,0,3.2,0.2,3.6,0.6
			c0.3,0.3-0.6,0.7-2.7,1.2c0.4,0,0.7,0,1.1,0c0.7,0,1,0,1,0S58.2,113.8,58.8,113.8z M37,177.6c1.6,1.5,3.6,2.7,6.2,3.5
			c0.2,0.1,0.3,0.1,0.2,0.1c0,0-0.1,0-0.3,0C40.5,180.4,38.4,179.2,37,177.6c-1.7-1.5-2.8-3.5-3.6-5.9c0-0.2,0-0.3,0-0.3
			c0,0,0.1,0.1,0.1,0.3C34.3,174.2,35.4,176.1,37,177.6z M49.9,124.2c1.3-0.5,2.7-0.8,4.2-1c1.1-0.2,2.2-0.2,3.3-0.2
			c0.5-0.1,1-0.2,1.5-0.2c-1.8-0.1-3.7,0-5.7,0.3c-1.3,0.3-2.6,0.7-3.7,1.1l0.2,0c-0.3,0.1-0.6,0.2-0.9,0.3l-0.1,0
			c0.2,0,0.5-0.1,0.7-0.1L49.9,124.2z M50.9,122c1.5-0.4,3-0.7,4.4-0.8c1.6-0.2,3-0.2,4.1,0c-0.3-0.1-0.9-0.2-1.9-0.5l-1.6,0.1
			c-1.4,0.2-2.8,0.4-4.2,0.7c0.1,0,0,0.1-0.3,0.2L50.9,122z M62.5,119.7C62.5,119.7,62.5,119.7,62.5,119.7L62.5,119.7z M65.5,123.6
			C65.6,123.8,65.6,123.8,65.5,123.6C65.5,123.7,65.5,123.7,65.5,123.6c-0.2,0-0.2-0.1-0.2,0C65.3,123.6,65.4,123.6,65.5,123.6z
			 M66.4,178.6c0.1-0.1,0.2-0.2,0.3-0.3c0.1-0.1,0.1-0.1,0,0C66.7,178.4,66.6,178.5,66.4,178.6C66.4,178.7,66.3,178.7,66.4,178.6z
			 M67.2,123.5c-0.1-0.2-0.1-0.2-0.1-0.2C67.1,123.3,67.2,123.4,67.2,123.5z M68.4,119.2c-0.4,0-0.8,0-1.2,0
			C67.6,119.3,68,119.3,68.4,119.2L68.4,119.2z M67.4,125.1c0.1-0.1,0.2,0,0.3,0.4c0,0.1,0.1,0.3,0.1,0.4l-0.1-0.1
			C67.7,125.6,67.5,125.4,67.4,125.1z M67.8,125.9L67.8,125.9l0,0.1L67.8,125.9z"/>
		<path class="st1" d="M71.9,166.2c-0.1-1.8-0.2-3.8-0.2-6c0-1.5,0.1-2.8,0.3-4c0.2-1.2,0.5-1.8,0.8-2c0.4-0.2,0.7,0.3,1,1.7l0-0.7
			L74,154c0.1-1.1,0.3-1.9,0.6-2.5l0.3-0.7c0.2-0.3,0.4-0.9,0.8-1.8c0.3-0.8,0.6-1.4,0.8-1.7l0.2,0.2l0-0.2c0.2-0.7,0.4-1.1,0.6-1.2
			l0.2,0.1c0.3,0.1,0.6,0.5,0.8,1c0.1,0,0.2,0.1,0.3,0.2c0.3-0.5,0.6-0.6,0.8-0.3c0.1-0.3,0.2-0.3,0.2,0.1c0,0.1,0,0.2,0,0.4
			c0.1-0.1,0.1-0.3,0.2-0.4l0-0.4l0.1-1.3c0.1-0.4,0.1-0.7,0.2-0.9c0.3-0.4,0.5-0.6,0.7-0.5c0,0,0,0.1,0,0.1l0.1-0.7
			c0-0.2,0.1-0.2,0.1-0.2c0.1,0,0.1,0,0.1-0.1c0,0,0,0,0,0l0.1,0.3c0,0.1,0.1,0.1,0.1,0.2l0,0.5l-0.3,0.7l0.1,0.1l-0.1,0.1l0.1-0.1
			l0,0.4l0.1-0.4c0,0.6,0,1,0,1.2c0,0.2,0,0.4,0,0.7l0,0c0,0.6-0.1,1.1-0.1,1.7c0,0.1-0.1,0.1-0.1,0.2c0,0.1,0,0.2,0,0.4l0,0.4v0.1
			l0,0.4v0.1l0.2,1.6c0,0.2-0.1,0.5-0.1,0.7l0.1-0.2c0,0,0,0,0,0h0.1c0.2-1,0.3-2.3,0.5-3.9c0-0.1-0.1-0.2-0.1-0.4l0-0.1
			c0,0,0,0,0-0.2l0,0.2c0-0.1,0-0.1,0-0.1l0,0.2l-0.4,2.3c0,0.3-0.1,0.3-0.1,0.2c-0.1-0.1-0.1-0.3,0-0.6c0.1-0.5,0.2-1.6,0.3-3.3
			c0-0.2,0-0.5,0-0.7c0.1-1.2,0.2-1.8,0.5-1.7c0,0,0.1,0,0.1,0c0,0,0.1,0,0.1,0c0.1-0.1,0.2,0,0.2,0.1c0.2,0.4,0.3,1.2,0.4,2.2
			l0.1-0.3c0.2-0.9,0.4-1.5,0.6-1.7c0.2-0.2,0.5,0,0.7,0.7c0.5,1.6,0.5,3.5,0.1,5.7l0.1-0.2c0,0.4,0,0.9-0.1,1.6l0.2-1
			c-0.3,1.9-0.6,3.5-0.9,4.7c0,0,0,0.2-0.1,0.6c0,0.5-0.1,0.8-0.2,1.1c0,0,0,0.1,0,0.1c0,0,0,0.1,0,0.1c-0.2,2.2-0.4,4.1-0.6,5.5
			c0,0.8,0,1.4-0.1,1.9v0l0.1-0.4c0,0.2,0,0.4,0,0.7c-0.1,0.3-0.1,0.5-0.1,0.6l0.2-0.2c0,1,0.2,3.5,0.6,7.4l0,0.3
			c0.2,0.3,0.3,0.7,0.6,1.3c0.3,0.7,0.5,1.1,0.6,1.3c-0.1-0.3-0.2-0.6-0.3-0.9c0.2,0.4,0.5,1,0.9,1.8c0.4,0.7,0.8,1.4,1.2,1.9
			c0.2,0.2,0.3,0.4,0.6,0.7c0.2,0.3,0.4,0.5,0.5,0.6c0.4,0.1,0.7,0.2,1.1,0.2c0.4,0,0.7,0,1.1,0c0.7-0.1,1.3-0.4,2-0.8
			c0.7-0.4,1.3-1,1.9-1.8c0.6-0.7,1.2-1.6,1.7-2.7c0.1-0.2,0.2-0.4,0.3-0.4c0.1,0,0.1,0.1,0,0.4c-0.7,1.6-1.6,2.8-2.5,3.8
			c-0.5,0.5-1,0.9-1.5,1.2c-0.5,0.3-1,0.5-1.5,0.7c0.9-0.1,1.8-0.5,2.7-1.2c0.9-0.7,1.8-1.7,2.6-2.9c0.2-0.3,0.4-0.6,0.6-0.9
			c0.1-0.2,0.3-0.5,0.6-0.9c0.8-1.6,1.6-3.4,2.2-5.3c0.6-1.8,1.1-3.8,1.5-5.8c0.6-3.1,1.1-6.5,1.4-10.1c0.2-2.1,0.3-4.5,0.4-7.2
			c0.1-2.1,0.2-4.5,0.2-7.2c0-0.8,0.1-1.2,0.3-1.3c0.2-0.1,0.3,0.3,0.3,1c0.1,5.3-0.1,10.4-0.6,15.4c-0.3,2.7-0.7,5.3-1.2,7.7
			c-0.6,2.8-1.2,5.3-2.1,7.6c-0.4,1.1-0.8,2.1-1.2,3.1c0,0,0.1,0,0.1,0c0.1,0,0.1,0.1,0.1,0.3c0.5-1.1,1-2.2,1.5-3.5
			c0.5-1.6,1.3-5.2,2.5-10.8c1-4.6,1.5-7.1,1.5-7.4c0.2-2.8,0.4-6,0.5-9.5c0-0.2,0-0.2,0-0.3c0-0.1,0,0,0,0.1c0.1,2,0.1,4.3,0,6.7
			c0.1-0.4,0.3-0.5,0.4-0.5c0.1,0.1,0.2,0.3,0.3,0.8l0.1-1.5c0.1-0.4,0.1-0.6,0.2-0.6c0.1,0,0.1,0.2,0.1,0.6
			c-0.2,2.1-0.4,4.2-0.7,6.3c-0.3,2.6-0.6,5.1-1,7.5c0.2-0.4,0.4-0.7,0.5-0.7l0.2-1.2c0.4-3.3,0.8-6.9,1.1-10.8
			c0.3-4.1,0.5-7.8,0.5-11c0-0.2,0-0.2,0-0.2c0,0,0,0,0,0.2c0,1.9-0.1,4.2-0.2,6.7c0-0.1,0.1-0.1,0.1,0c0,0.1,0,0.3,0,0.4
			c0,0.1,0,0.1,0,0c-0.3,4.3-0.6,8.4-1,12.3c0.5-3.2,0.9-6.9,1.3-11.2l0-1.3c0-0.1,0-0.2,0-0.3c0.1,0,0.1,0,0.1,0.2v0.3
			c0.1-0.8,0.2-1.2,0.4-1.2c0.2,0.1,0.3,0.5,0.2,1.4c-0.1,1.9-0.3,3.9-0.5,5.9l0,0.7v0.7c0.5-3.2,0.8-6.2,1.1-9.2
			c0-0.3,0-0.5,0.1-0.5c0.1,0,0.1,0.2,0.1,0.5c0,5.6-0.5,11.1-1.3,16.4c-0.1,2-0.2,3.9-0.4,5.6c0.1-0.2,0.1-0.5,0.2-0.7
			c0.6-2.4,1-5.3,1.2-8.6c0.1-1,0.2-2.4,0.2-4.1c0.1-2.2,0.2-3.6,0.2-4.3c0-0.2,0-0.3,0.1-0.3c0,0,0,0,0,0.2
			c-0.3,5.6-0.4,8.3-0.4,8.3c-0.2,1.7-0.4,3.9-0.7,6.7c0.6-2.9,1-7.3,1.4-13.1c0-0.2,0-0.4,0.1-0.5c0,0,0,0,0-0.1c0-0.5,0-1.1,0-1.8
			c0-0.2,0-0.3,0.1-0.3c0-0.1,0,0,0,0.1c0,0.7,0,1.3,0,1.7c0,0.1,0,0.2,0,0.3c0.1,0,0.1,0.1,0.1,0.3c0,3.9-0.3,8.4-1.1,13.4
			c0,0,0,0.1,0,0.2c0.1,0.4,0,0.9-0.1,1.6l-0.1,0.5c-0.6,2.2-1.2,4.2-1.8,5.8c-0.1,0.4-0.2,0.9-0.4,1.4c-0.5,1.9-1,3.7-1.6,5.2
			c0.1-0.1,0.2-0.1,0.2-0.1c0.1,0.1,0,0.4-0.3,1c-0.1,0.2-0.2,0.5-0.4,0.7c0.4-0.6,0.7-1.2,1.1-2c0-0.1,0.1-0.2,0.1-0.3
			c0.3-0.7,0.7-1.5,0.9-2.2c1.1-2.9,2-6.2,2.6-9.9c0.5-3,0.9-6.2,1.1-9.6c0-0.1,0-0.2,0-0.3c0.1-0.1,0.1-0.1,0.1,0c0,3,0,5,0,5.9
			c-0.1,2.3-0.3,4.4-0.6,6.4c-0.5,3-1.2,5.8-2,8.3c-0.5,1.5-1,2.9-1.6,4.2c-0.7,1.6-1.5,3-2.4,4.3c-1.3,1.7-2.6,3-4.1,4.1
			c-0.9,0.7-1.8,1.2-2.8,1.7c-1,0.5-2.1,0.8-3.2,1.1c-1.1,0.2-2.3,0.3-3.4,0.3c-0.5,0-1-0.1-1.6-0.1c-0.6-0.1-1.1-0.2-1.6-0.3
			c-1.2-0.3-2.3-0.7-3.3-1.3c-1.1-0.6-2-1.2-3-2.1c-1.1-1-2-2.2-2.9-3.5c-0.7-1.1-1.3-2.2-1.8-3.6c-0.8-2-1.4-4.2-1.8-6.7
			c-0.3-1.9-0.5-2.9-0.5-2.9S72.1,168.5,71.9,166.2z M76.9,147.6l0.6,0.7L76.9,147.6L76.9,147.6z M79.5,151.4l0.2-0.3L79.5,151.4
			L79.5,151.4z M80.8,155.2c0,0.4,0,0.8,0,1.2l-0.1,3.3c0-0.1,0.1,0,0.1,0.2v0.4c0.1-1.1,0.1-2.2,0.2-3.5c0.2-1.8,0.3-2.9,0.3-3.2
			C81.2,154.1,81,154.6,80.8,155.2z M80.8,146.7c0.1-0.1,0.1-0.2,0.1-0.2L80.8,146.7z M81.8,145c-0.1,0-0.1-0.1,0-0.5l0.1-0.4l0,0.1
			C81.9,144.5,81.9,144.7,81.8,145z M81.8,144.1L81.8,144.1l0-0.1L81.8,144.1L81.8,144.1z M82.1,147.6
			C82.2,147.6,82.2,147.6,82.1,147.6l0,0.3L82.1,147.6L82.1,147.6z M82.2,162.7l0.2-0.6l0-0.4c0-1.1,0.2-3.2,0.6-6.2
			c-0.1-0.4-0.1-0.8-0.2-1.3c-0.1,1.5-0.2,3.1-0.4,4.7c-0.1,1-0.1,2.1-0.1,3.1l0-0.1L82.2,162.7L82.2,162.7z M96.3,173.8
			c-0.1,0.1-0.1,0.2-0.1,0.1C96.1,174,96.1,173.9,96.3,173.8c0.7-1.6,1.5-3.3,2.2-5.3c0.6-1.7,1.2-3.6,1.7-5.7
			c0-0.2,0.1-0.2,0.1-0.2c0.1,0,0.1,0.1,0,0.3c-0.5,2.1-1.1,4-1.7,5.8C97.8,170.6,97.1,172.3,96.3,173.8z M106,144.6
			C106,144.5,106.1,144.5,106,144.6c0.1,0.1,0.1,0.2,0,0.3c0,0.1-0.1,0.1-0.1,0C106,144.8,106,144.7,106,144.6z"/>
		<path class="st1" d="M111.7,122.6c-0.8-0.7-1.4-1.6-1.6-2.5c-0.3-0.9-0.3-1.5,0-1.7c0.3-0.3,0.8-0.1,1.5,0.6
			c-0.1-0.2-0.1-0.3-0.2-0.4c-0.1-0.2-0.2-0.5-0.2-0.7c-0.2-0.7-0.2-1.3,0-1.7c0.1-0.2,0.1-0.4,0.2-0.5c0-0.1,0.1-0.3,0.3-0.6
			c0.1-0.2,0.2-0.5,0.3-0.6c0.3-0.4,0.6-0.7,0.8-0.8l0.2,0.1l0.1-0.1c0.2-0.3,0.4-0.4,0.7-0.5l0.2,0.1c0.2,0.1,0.5,0.3,0.8,0.5
			c0.1,0,0.2,0,0.3,0.1c0.3-0.1,0.6-0.1,0.9,0c0.1-0.1,0.2-0.1,0.2,0c0,0,0,0.1,0,0.1c0.1,0,0.1-0.1,0.1-0.1l0.1-0.1
			c0-0.1,0.1-0.2,0.1-0.3c0.1-0.1,0.2-0.1,0.2-0.1c0.3,0,0.5,0,0.7,0l0,0c0.1-0.1,0.1-0.1,0.1-0.1c0,0,0.1,0,0.1,0
			c0.1,0,0.1,0,0.1,0c0.1,0,0.1,0,0,0c0.1,0.1,0.1,0.1,0.1,0.1l0,0l0,0.1l-0.3,0l0.1,0h-0.1h0.1l-0.1,0l0.1,0c0,0.1,0,0.2,0,0.2
			c0,0,0,0.1,0,0.1h0c0,0.1-0.1,0.2-0.1,0.3c0,0-0.1,0-0.1,0c0,0,0,0,0,0l0,0.1h0l0,0c0.1,0.1,0.2,0.1,0.3,0.2c0,0,0,0.1,0,0.1l0,0
			c0.2-0.1,0.2-0.1,0.1,0c0.1-0.1,0.2-0.2,0.3-0.5c0,0,0,0,0,0v0h0h0l0,0c-0.2,0.1-0.3,0.2-0.4,0.3c0,0,0,0-0.1,0
			c-0.1,0-0.1-0.1,0-0.1l0.3-0.5c0-0.1,0-0.1,0-0.1c0.1-0.2,0.2-0.2,0.5-0.1c0.3,0.1,0.4,0.1,0.5,0.1c0.2,0.1,0.3,0.2,0.4,0.3h0
			c0.2-0.1,0.4-0.1,0.6,0h0c0,0,0,0,0,0c0,0,0.3,0.1,0.7,0.2c0,0,0.1,0,0.1,0l-0.2,0c-0.1,0-0.3,0-0.4,0c-0.1,0-0.3,0-0.4,0
			c0,0.1-0.1,0.2-0.1,0.4c0.1,0.1,0.1,0.2,0.1,0.3v-0.2c0,0,0,0.1,0,0.1c0,0.1,0,0.1,0,0.1l0.1-0.2c0,0.1,0.2,0.2,0.4,0.3
			c0.2,0.1,0.3,0.2,0.4,0.3l0,0c0.2-0.2,0.2-0.4,0.2-0.3l-0.1-0.1l0.1-0.1c0,0,0.1,0.1,0.2,0.2c0.1,0.1,0.3,0.2,0.6,0.4v0l0.1-0.1
			l0-0.1c0.1-0.1,0.1-0.1,0.1-0.2c0.1-0.2,0.2-0.3,0.2-0.5c0.1-0.2,0.1-0.3,0-0.5c0-0.2,0-0.4,0-0.6c0-0.1,0-0.1,0.1-0.1
			c0.1,0,0.1,0,0.1,0c0.1,0.3,0.2,0.6,0.2,0.9c0,0.3,0,0.6-0.1,0.9c0.2-0.2,0.3-0.5,0.4-0.7c0.1-0.3,0.2-0.6,0.2-0.8
			c0-0.1,0-0.1,0-0.2c0-0.1,0-0.1,0-0.2c-0.1-0.5-0.2-0.9-0.3-1.3c-0.2-0.4-0.4-0.7-0.7-0.9c-0.3-0.2-0.5-0.3-0.7-0.4
			c-0.1,0-0.1,0-0.2,0v0c0,0.1,0.1,0.2,0.1,0.4c0,0,0,0.1,0,0.1c0,0.1-0.2,0.3-0.6,0.8c-0.1,0.1-0.2,0.1-0.4,0
			c-0.2-0.1-0.2-0.2-0.1-0.4c0.2-0.4,0.4-0.8,0.7-1.2c0.1-0.1,0.1-0.2,0.2-0.3c0-0.1,0.1-0.1,0.1-0.1c0.2-0.1,0.6,0,1,0.3
			c0.5,0.3,0.8,0.8,1,1.4c0.1,0.3,0.2,0.5,0.2,0.7h0c0.1,0,0.2,0,0.3,0c-0.1-0.3-0.1-0.6-0.2-0.9c-0.3-0.5-0.9-1-1.7-1.7
			c-0.5-0.4-0.8-0.6-0.8-0.7c-0.2,0.1-0.4,0.2-0.6,0.4c-0.2,0.2-0.4,0.4-0.7,0.7c0,0,0,0-0.1,0c0,0,0,0,0,0c0.2-0.5,0.5-1,0.8-1.3
			c-0.1-0.1-0.2-0.2-0.2-0.3c-0.1-0.2-0.1-0.3,0-0.4c-0.1,0-0.3,0.1-0.4,0.1c-0.1,0.1-0.2,0-0.2,0c-0.1-0.1,0-0.1,0-0.2
			c0.5-0.3,1.1-0.4,1.6-0.3c0.7,0,1.4,0.2,2,0.7c0-0.2,0-0.3,0-0.4c-0.1-0.1-0.2-0.1-0.3-0.2c-0.6-0.2-1.1-0.3-1.6-0.3
			c-0.5,0-0.9,0.2-1.4,0.4c-0.8,0.4-1.6,1.2-2.3,2.3c0,0.1-0.1,0.1-0.1,0c-0.1,0-0.1-0.1,0-0.1c0.5-0.7,0.9-1.2,1.4-1.6
			c-0.1,0-0.1,0-0.1,0c0-0.1,0.1-0.1,0.1-0.1c0.1,0,0.1,0,0,0.1c0.5-0.5,1-0.8,1.5-0.9c0.6-0.2,1.2-0.3,1.8-0.1
			c-0.6-0.2-1.1-0.2-1.7-0.1c-0.5,0.1-1.1,0.3-1.6,0.7c-0.1,0.1-0.2,0.3-0.2,0.4c0,0-0.1,0-0.1,0c0,0,0,0,0,0l0-0.1
			c-0.2,0.2-0.4,0.2-0.5,0c-0.2-0.2-0.1-0.4,0.1-0.6c0.6-0.5,1.2-0.9,1.9-1c0.1-0.1,0.2-0.1,0.2-0.1c0.1,0,0.1-0.1,0.2-0.1
			c-0.6,0-1.2,0.1-1.7,0.4c-0.5,0.3-1,0.6-1.5,1c-0.1,0.1-0.1,0.1-0.2,0c-0.1,0,0-0.1,0-0.2c0.8-1,1.7-1.7,2.8-2
			c0.6-0.2,1.3-0.2,1.9-0.1c0.6,0.1,1.2,0.3,1.8,0.6c0.8,0.2,1.7,0.5,2.5,0.9c-0.1-0.1-0.2-0.2-0.2-0.2c-1-1.1-2.3-1.7-3.7-1.7
			c-0.7,0-1.4,0.1-2.1,0.3c-0.6,0.2-1.2,0.5-1.8,0.9c-0.1,0-0.1,0-0.1,0c0,0,0-0.1,0-0.1c0.6-0.4,1.2-0.7,1.7-0.9
			c0.7-0.2,1.4-0.4,2.1-0.3c1,0.1,2.1,0.5,3.3,1.1c-0.9-0.7-2-1.2-3.1-1.3c-1.2-0.1-2.3,0.1-3.4,0.7c-0.1,0-0.2,0-0.2,0
			c0,0,0,0.1,0,0.1l-0.7,0.6c0,0.1-0.1,0.1-0.1,0c0,0,0,0,0-0.1l0.6-0.6c0,0,0.1,0,0.1,0c0-0.1,0-0.1,0.1-0.2c0.5-0.3,1-0.6,1.6-0.7
			c0.6-0.2,1.2-0.2,1.9-0.2c1.2,0.1,2.4,0.5,3.5,1.3c0,0,0.1,0,0.1,0c0.2,0,0.5,0.2,0.7,0.5l0.1,0.2c0.7,0.8,1.2,1.7,1.5,2.6
			c0.2,0.2,0.3,0.3,0.4,0.6c0.5,0.7,0.9,1.5,1.2,2.3c0-0.1,0.1-0.1,0.1-0.1c0.2,0,0.2,0.1,0.3,0.4c0,0.2,0,0.3,0,0.4
			c0-0.4,0-0.7,0-1.1c0-0.1,0-0.1,0-0.1c-0.1-0.4-0.2-0.8-0.3-1.2c-0.6-1.7-1.6-3.2-3-4.3c-0.7-0.6-1.5-1-2.4-1.4
			c-0.9-0.4-1.9-0.5-2.8-0.5c-0.1,0-0.2,0-0.2,0c-0.1,0,0,0,0,0c1.2-0.2,2.5-0.1,3.7,0.2c1.3,0.4,2.4,1,3.3,1.9
			c1.2,1.1,2.1,2.4,2.7,3.8c0.7,1.6,1,3.2,1,4.9c-0.2,1.9-0.7,3.7-1.5,5.4c-0.2,0.4-0.5,0.8-0.7,1.2c-0.2,0.2-0.3,0.4-0.4,0.6
			l-0.4,0.5c-0.7,0.9-1.5,1.6-2.5,2.2c-1.2,0.8-2.6,1.4-4.2,1.7c-1.4,0.3-2.8,0.3-4.2,0c-1.3-0.2-2.6-0.6-3.8-1.2
			c-1.3-0.7-1.9-1-1.9-1S112.7,123.6,111.7,122.6z M123.9,145.3c0,0.5,0,0.9-0.1,1.2v0l0.1-0.3c0,0.1,0,0.3-0.1,0.4
			c-0.1,0.2-0.1,0.3-0.1,0.4l0.2-0.1c-0.3,3.5-0.4,5.2-0.4,5.1c0,0,0,0.1,0,0.2c0.2,0.9,0.3,1.6,0.3,2.2l0.1-0.8
			c0.1,0.7,0.1,1.2,0.1,1.8c0,2-0.3,3.5-0.9,4.4c0.1,4.7,0.2,8,0.3,9.7c0,0.2,0,0.3-0.1,0.3c-0.1,0-0.1,0-0.1-0.2
			c-0.2-1.8-0.3-4.1-0.5-7.1c-0.1,2.5-0.2,4.5-0.2,6l0,0.8c0,0.2,0,0.4,0,0.7c0,3.7,0,6.2,0.1,7.7c0.1,2.2,0.3,4.3,0.5,6.4
			c0.4,4.2,0.6,7.3,0.6,9.1c0,0.5-0.1,0.8-0.3,0.8c-0.2,0.1-0.3-0.2-0.3-0.7c-0.7-9.4-1.1-16-1-19.6l0-2.2c0,0-0.1,0-0.1,0
			c-0.1,0-0.1-0.1-0.2-0.2c0,0.8,0,1.6-0.1,2.5c0.2,3,0.3,5.4,0.3,7c0,1-0.2,2.5-0.4,4.7c0,0.4,0,1.4,0.1,3c0.1,1.2,0.1,2.2,0.1,3
			c0,0.1,0,0.2,0,0.2c-0.1,0-0.1,0-0.1-0.1c-0.2-1.1-0.3-2.5-0.5-4.2c-0.1,0.3-0.3,0.4-0.4,0.3c-0.1,0-0.3-0.1-0.4-0.4v0.9
			c0,0.3,0,0.4-0.1,0.4c-0.1,0-0.1-0.2-0.1-0.4l0-3.9c-0.1-1.7-0.2-3.2-0.2-4.6c0,0.1-0.1,0.2-0.1,0.3c-0.1,0.1-0.2,0.2-0.2,0.2v0.7
			c0.5,4.8,0.7,9.3,0.6,13.5c0,0.1,0,0.1,0,0.1c-0.1,0-0.1,0,0-0.1c0-1.3,0-2.7,0-4.1c0,0.1,0,0.1,0,0c0-0.1,0-0.1,0-0.2
			c0-0.1,0-0.1,0,0c0-2.4-0.2-5-0.4-7.6c0,2.9,0,5.2,0,7l0.1,0.7c0,0.1,0,0.2,0,0.2c0,0,0,0,0-0.1l0-0.2c0,0.5-0.1,0.7-0.3,0.7
			c-0.2,0-0.3-0.3-0.3-0.8c0-1.1,0-2.3,0-3.7l0-0.4l-0.1-0.4c-0.1,1.7-0.1,3.5-0.2,5.7c0,0.2,0,0.3-0.1,0.3c-0.1,0-0.1-0.1-0.1-0.3
			c-0.3-3.1-0.4-6.5-0.6-10l-0.8-3.3v0.4c0,1.3,0.1,3.1,0.4,5.2c0.3,2.4,0.5,4.1,0.6,5.1c0,0.1,0,0.1,0,0.1c-0.1,0-0.1,0-0.1-0.1
			c0,0.2-0.2-1.5-0.6-5c-0.2-1.9-0.4-3.3-0.5-4.1c0,1,0.1,2.4,0.3,4c0.2,2,0.3,3.3,0.3,4c0,0.1,0,0.2,0,0.3c0,0,0,0.1,0,0.1
			c0.1,0.3,0.1,0.6,0.2,1.1c0,0.1,0,0.2,0,0.2c0,0,0,0,0-0.1c-0.1-0.4-0.1-0.8-0.2-1c0,0,0-0.1,0-0.1c-0.1,0-0.1-0.1-0.1-0.2
			c-0.2-1.2-0.5-3.9-0.9-8.1c0,0-0.1-0.1-0.1-0.1c-0.2-0.2-0.2-0.5-0.2-1l0-0.3l0.2-3.6c-0.1-0.2-0.1-0.5-0.1-0.8
			c-0.2-1.2-0.4-2.3-0.5-3.1c0,0.1-0.1,0.1-0.1,0.1c-0.2,0-0.2-0.2-0.2-0.5v-0.5l-0.1,1.3c0,0.1,0,0.1,0,0.1c0,0.5,0,1,0,1.4
			c0.1,3.2,0.4,7.1,1,11.7c0,0.1,0,0.2,0,0.2c0,0-0.1,0-0.1,0c-1.1-4.7-1.7-7.1-1.7-7.2c-0.5-3.4-0.9-6.6-1.2-9.7
			c0-1.2-0.2-4.6-0.5-10.2c-0.2-3.4-0.3-8.1-0.4-14c-0.1-2.1,0.3-3.3,1.1-3.6c0.4-0.1,0.8,0.2,1.1,1v-0.4l0.1-0.7
			c0.1-0.7,0.2-1.2,0.5-1.5l0.3-0.5c0.1-0.2,0.4-0.6,0.7-1.1c0.3-0.5,0.6-0.8,0.8-1l0.2,0.1l0-0.1c0.2-0.4,0.4-0.7,0.6-0.8l0.2,0
			c0.3,0.1,0.6,0.3,0.8,0.6c0.1,0,0.2,0,0.3,0.1c0.3-0.3,0.6-0.4,0.8-0.2c0.1-0.2,0.2-0.2,0.3,0.1c0,0.1,0,0.1,0,0.2
			c0.1-0.1,0.1-0.2,0.2-0.3l0-0.2l0.1-0.8c0.1-0.2,0.1-0.4,0.2-0.5c0.3-0.2,0.5-0.3,0.7-0.3l0,0c0-0.2,0.1-0.3,0.1-0.4
			c0-0.1,0.1-0.1,0.1-0.1c0.1,0,0.1,0,0.1,0l0,0c0.1,0.1,0.2,0.2,0.2,0.2c0,0,0,0.1,0,0.1l0,0.3l-0.3,0.4l0.1,0.1l-0.1,0.1l0.1,0
			l-0.1,0.2l0.1-0.2c0,0.3,0,0.5,0,0.7c0,0.1,0,0.2,0,0.4c0,0,0.1,0,0.1,0l-0.1,1c0,0.1,0,0.1,0,0.1c0,0.1,0,0.1,0,0.2l0,0.3l0,0
			l0,0.2v0l0.2,1c0,0.1,0,0.3,0,0.4c0-0.1,0-0.1,0-0.1c0,0,0.1,0,0.1,0c0,0,0.1,0,0.1,0c0.1-0.6,0.2-1.4,0.3-2.4c0-0.1,0-0.2,0-0.2
			v-0.1l0-0.1c0,0.2,0,0.2,0,0.1c0,0,0-0.1,0-0.1v0.1c-0.1,0.6-0.2,1-0.3,1.4c0,0.2-0.1,0.2-0.1,0.1c-0.1-0.1-0.1-0.2,0-0.4
			c0,0,0.1-0.7,0.3-2.1c0-0.1,0-0.3,0-0.4c0-0.7,0.2-1,0.5-1c0.2-0.1,0.4-0.1,0.5,0c0.2,0.3,0.4,0.7,0.4,1.4l0-0.2
			c0.2-0.5,0.4-0.9,0.6-1c0.3-0.1,0.5,0,0.7,0.4c0.5,0.9,0.6,2.1,0.2,3.4l0.1-0.1c0,0.2,0,0.5-0.1,1l0.2-0.7c-0.2,1.2-0.4,2.2-0.7,3
			l-0.1,0.4c0,0.3,0,0.5-0.1,0.7c-0.1,1.5-0.2,2.2-0.2,2.2S124.2,144.4,123.9,145.3z M113.2,113.7c0.2,0.1,0.5,0.2,0.7,0.3
			C113.7,113.9,113.4,113.8,113.2,113.7L113.2,113.7z M117.2,113.8L117.2,113.8L117.2,113.8z M118,136.3l-0.7-0.4l0,0L118,136.3z
			 M118,114.9c0.1-0.1,0,0-0.3,0.4c0.1,0.1,0.1,0.1,0.1,0.2c0.1,0.2,0.2,0.4,0.3,0.6c0,0,0.1,0,0.1,0l0.1,0
			c-0.1-0.2-0.2-0.4-0.2-0.7C118,115.2,118,115,118,114.9z M119.7,114.4c-0.1,0-0.2,0-0.2,0c-0.1,0.3-0.1,0.5-0.1,0.4
			c0,0.1,0.1,0.3,0.1,0.4l0,0c0,0,0,0.1,0,0.1l0,0c0-0.1,0-0.2,0-0.2v0c-0.1-0.1-0.1-0.3,0-0.4C119.6,114.5,119.6,114.4,119.7,114.4
			z M121.3,135.3c0.1-0.1,0.1-0.1,0.1-0.1L121.3,135.3z M121.8,141.5c0.1-1.3,0.2-1.9,0.2-2c-0.1,0.3-0.3,0.6-0.5,0.9
			c0,0.3,0,0.5,0,0.7c0,0.7,0,1.4-0.1,2.1c0-0.1,0.1,0,0.1,0.1v0.2C121.7,143,121.7,142.3,121.8,141.5z M123.3,144.5
			c0-0.4,0.2-1.7,0.5-3.9c-0.1-0.2-0.2-0.5-0.2-0.8c-0.1,1-0.2,2-0.3,3c0,0.5-0.1,1.2-0.1,2l0-0.1l-0.1,0.5v0l0.2-0.4L123.3,144.5z"
			/>
		<path class="st1" d="M166,179.9c-0.2,1.6-0.6,4.2-1.2,7.8l-0.6,9.7c0,0.2,0,0.3-0.1,0.3c0,0,0,0,0-0.2c0-1.9,0-4.2,0.1-6.9
			c-0.1,0.4-0.3,0.5-0.4,0.5c-0.2,0-0.3-0.3-0.3-0.8l-0.1,1.6c0,0.4-0.1,0.6-0.2,0.6c-0.1,0-0.1-0.2-0.1-0.6l0.6-6.4
			c0.2-2.7,0.3-5.2,0.5-7.8c-0.2,0.4-0.3,0.7-0.4,0.7l-0.1,1.3c-0.3,7.5-0.7,14.9-1.4,22.3c0,0.2-0.1,0.3-0.1,0.3
			c-0.1,0-0.1-0.1,0-0.2c0.2-2.3,0.4-4.6,0.6-6.8h0c0,0.1,0,0.1,0,0c0-0.1,0-0.2,0-0.3c0-0.1,0.1-0.1,0.1,0
			c0.3-4.2,0.6-8.3,0.7-12.6c-0.4,4.7-0.8,8.5-1.1,11.5v1.3c0,0.2,0,0.3,0,0.3c-0.1,0-0.1,0-0.1-0.2v-0.4c-0.1,0.9-0.2,1.3-0.4,1.3
			c-0.3-0.1-0.3-0.5-0.2-1.5c0.2-1.8,0.3-3.8,0.5-6V188v-0.7l-1.1,9.3c0,0.3-0.1,0.5-0.1,0.5c-0.1,0-0.1-0.2-0.1-0.5
			c0.2-4.8,0.5-10.4,0.9-16.6l-0.3-5.6l0,0.7c-0.2,2.2-0.3,5.1-0.4,8.6c-0.1,4-0.1,6.8-0.2,8.5c0,0.2,0,0.3-0.1,0.3c0,0,0-0.1,0-0.3
			c0,0.5,0-2.3,0.2-8.3c0.1-3.2,0.1-5.5,0.1-6.8c-0.1,1.7-0.2,3.9-0.3,6.6c-0.1,3.3-0.2,5.5-0.3,6.6c0,0.2,0,0.4-0.1,0.5
			c0,0,0,0,0,0.1c0,0.5,0,1.1,0,1.8c0,0.2,0,0.3,0,0.3c-0.1,0.1-0.1,0-0.1-0.1c0-0.7,0-1.3,0-1.7c0-0.1,0-0.2,0-0.3
			c-0.1,0-0.1-0.1-0.1-0.3c-0.1-2,0-6.4,0.3-13.4c-0.1,0-0.1-0.1-0.1-0.2c-0.1-0.3-0.1-0.9,0-1.6l0-0.5l0.8-5.9c0-0.4,0-0.9,0-1.4
			v-0.1c-0.1,0.1-0.1,0.1-0.2,0.1c-0.2,0-0.4-0.1-0.7-0.2c-0.3,4.8-0.5,10.7-0.6,17.6c0,0.2,0,0.3,0,0.4c-0.1,0.1-0.1,0-0.1-0.1
			c-0.5-7.9-0.7-11.9-0.7-12c0-1.5,0-3.1,0-4.8c-0.3-0.1-0.7-0.3-1.1-0.7c-0.5-0.4-0.9-0.7-1.2-1.1v0.1c-0.1-0.1-0.3-0.3-0.7-0.6
			c0.2,0.2,0.3,0.4,0.4,0.5c-0.9-0.9-1.5-1.5-1.8-1.9c0,0-0.1-0.1-0.3-0.2c-0.2-0.1-0.4-0.2-0.5-0.4h0l0,0c-0.3-0.1-0.8-0.3-1.4-0.6
			c-0.6-0.2-1-0.4-1.2-0.5c-0.4,0-0.7,0-1-0.1h0l0.2,0.1c-0.1,0-0.2,0-0.3-0.1c-0.1,0-0.2,0-0.3,0l0.1,0.2c-0.6,0-1.2,0.2-2,0.4
			c0.2-0.1-0.5,0.2-2,0.7l-0.1,0.1c-0.7,0.8-1.2,1.3-1.3,1.5c0.2-0.2,0.4-0.3,0.6-0.4c-0.5,0.5-0.8,0.9-1.1,1.2
			c-0.6,0.6-1.2,1.2-1.7,1.6c-0.7,0.6-1.2,1-1.5,1.2c-0.8,1.5-1.3,3-1.5,4.5c-0.3,1.6-0.3,3,0,4.4c0.1,0.2,0,0.3,0,0.3
			c-0.1,0.1-0.1,0-0.1-0.2c-0.6-2-0.5-4.2,0.2-6.7c-0.8,2-1.2,3.9-1.1,5.8c0,0.3,0.1,0.5,0.1,0.7c0,0.2,0,0.4,0,0.7
			c0.5,2.5,1.8,4.4,3.7,5.7c0.8,0.5,1.7,1,2.8,1.3c1,0.3,2,0.5,3.2,0.7c1.4,0.2,3,0.2,4.9,0.1c1.3-0.1,3-0.2,5.1-0.5
			c0.6-0.1,0.9,0,1,0.1c0.1,0.2-0.1,0.4-0.7,0.5c-2,0.3-3.8,0.6-5.5,0.7c-1.9,0.1-3.7,0-5.3-0.2c-1.8-0.3-3.4-0.8-4.8-1.6
			c-1.5-0.8-2.6-1.9-3.4-3.3c-0.3-0.6-0.6-1.2-0.8-1.9l0,0c-0.1,0-0.2,0-0.3-0.1c0.2,0.8,0.5,1.5,0.9,2.2c1.2,1.6,3,3,5.5,4.1
			c1.6,0.7,3.2,1.3,4.9,1.7c2,0.2,4.2,0.1,6.8-0.2c0.1,0,0.2,0,0.2,0c0,0,0,0.1-0.1,0.1c-1.6,0.3-3.3,0.5-4.9,0.6
			c0.3,0.1,0.4,0.3,0.4,0.4c0,0.2-0.2,0.3-0.6,0.4c0.2,0,0.6,0,1.2,0c0.3,0,0.4,0.1,0.4,0.1c0,0.1-0.1,0.2-0.4,0.1
			c-1.7-0.1-3.2-0.2-4.7-0.5c-2-0.3-3.7-0.8-5.3-1.5c0.2,0.3,0.3,0.5,0.3,0.6c0.2,0.1,0.5,0.2,0.8,0.3c2.3,0.7,4.9,1.1,8,1.2
			c2.4,0,5.2-0.1,8.3-0.5c0.1,0,0.2,0,0.2,0c0,0.1-0.1,0.1-0.2,0.1c-1.8,0.2-3.5,0.4-5,0.5h0c0.1,0,0.1,0.1,0,0.1
			c-0.1,0-0.2,0-0.3,0c-0.1,0-0.1-0.1,0-0.1c-3.5,0.2-6.6,0-9.2-0.6c2.3,0.7,5.1,1,8.4,1.1l0.9-0.1c0.1,0,0.2,0,0.2,0
			c0,0,0,0.1-0.1,0.1l-0.2,0c0.6,0,0.9,0.1,0.9,0.3c0,0.3-0.3,0.4-1,0.4c-1.6,0.1-3.1,0.1-4.6-0.1H149h-0.5c2.2,0.4,4.5,0.5,7.1,0.5
			c0.2,0,0.4,0,0.4,0.1c0,0.1-0.1,0.1-0.4,0.1c-2.2,0.3-4.4,0.4-6.4,0.2c-2.4-0.2-4.5-0.6-6.5-1.3c-1.6-0.3-3.1-0.8-4.4-1.5
			c0.2,0.2,0.4,0.3,0.5,0.4c1,0.7,2.1,1.2,3.3,1.6c1,0.3,2.2,0.6,3.4,0.7c1.6,0.2,3.8,0.3,6.7,0.2c0.1,0,0.2,0,0.2,0.1
			c0,0-0.1,0-0.2,0c-3,0.1-5.2,0-6.7-0.2c-1.9-0.3-3.7-0.8-5.5-1.5c1.5,0.8,3.3,1.3,5.3,1.7c1.5,0.2,3.3,0.4,5.3,0.4
			c0.2,0,0.3,0,0.4,0c0,0,0,0,0.1,0c0.3-0.1,0.7-0.1,1.4-0.2c0.1,0,0.2,0,0.2,0c0.1,0,0,0.1-0.1,0.1c-0.6,0.1-1,0.1-1.4,0.1
			c-0.1,0-0.1,0-0.2,0c0,0.1-0.1,0.1-0.3,0.1c-1.8,0.2-3.6,0.1-5.4-0.2c-2-0.3-3.9-0.9-5.6-1.7c-0.1,0-0.1,0-0.2,0
			c-0.4,0-0.8-0.2-1.3-0.6l-0.4-0.3c-1.6-1.2-2.8-2.5-3.8-4c-0.3-0.3-0.6-0.6-0.8-1c-1-1.3-1.8-2.7-2.3-4.3c0,0.1-0.1,0.2-0.1,0.2
			c-0.2,0-0.3-0.3-0.4-0.8c-0.1-0.2-0.1-0.4-0.1-0.7c0.1,0.7,0.2,1.3,0.4,1.9c0,0.1,0,0.2,0,0.3c0.2,0.7,0.5,1.4,0.8,2.1
			c0.7,1.5,1.7,2.8,2.8,4c1.1,1.1,2.3,2.1,3.7,2.8c2.3,1.3,5,2.1,8.1,2.4c0.1,0,0.2,0,0.3,0c0.1,0.1,0,0.1,0,0.1
			c-2,0-3.7-0.2-5.2-0.5c-2.1-0.4-3.9-1.2-5.5-2.3c-2.4-1.6-4.2-3.7-5.6-6.2c-1.3-2.4-2-5.1-2.2-8.1c0-2.7,0.4-5.4,1.2-8.1
			c0.8-2.7,2-5.2,3.6-7.4c1.1-1.7,2.4-3.1,3.8-4.4c1.6-1.4,3.2-2.5,5.1-3.4c1.9-1,4-1.6,6.1-1.9c2.1-0.3,4.3-0.3,6.5,0.1
			c1.5,0.2,2.8,0.7,4,1.4c0.3,0.2,0.6,0.4,0.8,0.6c0.2-2.3,0.3-6.7,0.6-13.2c0.1-2.4,0.2-6.2,0.4-11.5c0.2-4.8,0.4-8.6,0.4-11.3
			c0-3.4,0.4-5.4,1.3-5.8c0.4-0.2,0.8,0.3,1.1,1.6v-0.7l0.1-1.1c0.1-1.1,0.3-1.9,0.5-2.5l0.3-0.7c0.2-0.3,0.4-0.9,0.8-1.9
			c0.3-0.8,0.6-1.4,0.8-1.7l0.2,0.2l0.1-0.2c0.2-0.7,0.3-1.1,0.6-1.3l0.3,0c0.3,0.1,0.6,0.5,0.9,1c0.1,0,0.2,0,0.3,0.2
			c0.3-0.5,0.6-0.6,0.8-0.3c0.1-0.3,0.2-0.3,0.3,0.1c0,0.1,0,0.2,0,0.4c0.1-0.1,0.1-0.3,0.2-0.4v-0.4l0.1-1.4
			c0.1-0.6,0.2-0.9,0.2-0.9c0.3-0.4,0.5-0.6,0.7-0.6c0,0,0.1,0.1,0.1,0.1l0-0.7c0-0.1,0.1-0.2,0.1-0.2c0.1,0,0.1-0.1,0.1-0.1
			c0,0,0.1,0,0.1,0l0.1,0.3c0,0,0.1,0.1,0.1,0.1l0,0.5l-0.2,0.7l0.1,0.1l-0.1,0.1l0.1-0.1l-0.1,0.4l0.1-0.4c0,0.6,0,1,0,1.2
			c0,0.2,0,0.4,0,0.7l0,0c0,0.6,0,1.1,0,1.7c0,0.1-0.1,0.1-0.1,0.2c0,0.1,0,0.2,0,0.4v0.5v0.1l0,0.4l0,0l0.2,1.6c0,0.3,0,0.5,0,0.7
			l0-0.2c0,0,0,0,0.1,0c0,0,0,0,0,0c0.2-1.1,0.3-2.4,0.3-4c0-0.1-0.1-0.2-0.1-0.4v-0.1c0,0.1,0,0,0-0.2l0,0.2l0-0.1l0,0.2l-0.3,2.3
			c0,0.3-0.1,0.4-0.1,0.2c-0.1-0.2-0.1-0.4,0-0.6c0-0.6,0.1-1.7,0.2-3.4c0-0.2,0-0.5,0-0.8c0-1.2,0.1-1.7,0.4-1.7
			c0.3-0.1,0.4-0.1,0.5,0c0.3,0.4,0.5,1.2,0.6,2.2l0-0.2c0.1-1,0.3-1.5,0.6-1.7c0.3-0.2,0.5,0,0.8,0.7c0.6,1.6,0.7,3.5,0.4,5.8
			l0.1-0.2c0,0.4,0,1-0.1,1.7l0.2-1.1c-0.2,2-0.5,3.7-0.8,5c0,0,0,0.2-0.1,0.6c0,0.5-0.1,0.9-0.2,1.2c-0.2,2.4-0.4,4.4-0.8,6.1
			c0,0.8-0.1,1.5-0.2,2.1v0l0.2-0.5c0,0.2-0.1,0.5-0.1,0.7c-0.1,0.3-0.2,0.5-0.2,0.7l0.2-0.2c-0.5,5.3-0.8,8.1-0.8,8.4v0.3
			c0.1,1.5,0.1,2.7,0.1,3.6l0.1-1.4c0,1.1,0,2.1,0,3c-0.3,3.4-0.7,5.8-1.5,7.3l-1,16.1c0,0.3-0.1,0.5-0.1,0.6
			c-0.1,0-0.1-0.1-0.1-0.4c0.1-2.6,0.3-6.5,0.5-11.7c-0.5,4.5-0.8,7.8-1,9.9l-0.1,1.3c0,0.4-0.1,0.8-0.1,1.3
			c-0.6,6.5-0.9,10.7-1,12.7c-0.2,3.7-0.3,7.3-0.5,10.7c-0.3,7-0.5,12-0.8,15.1c0,0.8-0.2,1.3-0.4,1.4s-0.3-0.3-0.2-1.1
			c0.5-14.2,1.2-25,1.9-32.5l0.3-3.6l0,0c-0.1,0-0.2-0.1-0.2-0.3c-0.1,1.3-0.3,2.6-0.5,4c-0.2,5-0.3,7.5-0.3,7.5
			S166.3,177.2,166,179.9z M151.6,162.6c0.9,0.1,2,0.6,3.1,1.4c0.3,0,0.5,0,0.8,0.1c-0.9-0.5-1.7-0.9-2.4-1.3
			c-0.6-0.2-1.1-0.3-1.7-0.4l0.1,0c-0.1,0-0.2-0.1-0.4-0.1l0,0c0.1,0.1,0.2,0.2,0.3,0.2L151.6,162.6z M152.6,161
			c0.7,0.2,1.4,0.4,2.1,0.7c0.8,0.4,1.4,0.7,1.8,1c-0.2-0.2-0.4-0.5-0.7-0.8c-0.3-0.1-0.5-0.2-0.7-0.3c-0.7-0.3-1.4-0.5-2-0.7
			c0,0.1,0,0.1-0.1,0.1L152.6,161z M157.5,163.7c-0.2-0.1-0.3-0.2-0.4-0.3c0,0,0.1,0.1,0.1,0.1c0,0,0,0.1,0,0.1l0,0
			c0.9,0.9,1.5,1.4,1.6,1.5v-0.2c0-0.1,0-0.2,0-0.2c-0.2-0.2-0.3-0.3-0.4-0.5c-0.1-0.1-0.1-0.2,0-0.2c0.1,0,0.2,0.1,0.4,0.2
			c0,0,0,0,0,0c0,0,0,0.1,0,0.1v-0.2l-0.2-0.1l0,0c-0.5-0.2-0.7-0.3-0.7-0.3S157.7,163.7,157.5,163.7z M159.1,155
			c-0.3,0-0.6,0-1.1-0.1c0.2,0.1,0.5,0.2,0.6,0.3l0.4,0.2c0,0,0-0.1,0-0.2S159.1,155.1,159.1,155z M158.8,162l0-0.2L158.8,162z
			 M160.6,166.2c0.1,0.1,0.2,0.3,0.3,0.4c0-0.1,0-0.2,0-0.2c0,0,0-0.1,0-0.1h0v-0.2c-0.2-0.2-0.3-0.3-0.4-0.4
			c-0.1-0.1-0.2-0.2-0.3-0.3c0,0.2,0,0.2,0,0.1c0,0,0,0.1,0,0.1v0.1c0,0,0,0,0,0c0.1,0.1,0.2,0.1,0.2,0.1S160.5,166,160.6,166.2z
			 M160.7,164.8c0,0.1,0.1,0.1,0.1,0.1L160.7,164.8z M160.9,163.7C160.9,163.7,160.9,163.7,160.9,163.7c-0.1,0,0,0.1,0,0.2V163.7z
			 M165.9,105.2l0.7,0.6L165.9,105.2L165.9,105.2z M168.8,108.8l0.2-0.3L168.8,108.8z M170,104c0-0.1,0-0.2,0-0.2L170,104z
			 M170.3,114c-0.1,1.1-0.1,2.2-0.2,3.4c0-0.1,0.1,0,0.1,0.3v0.4l0.3-3.6c0.2-2.7,0.3-3.8,0.2-3.3c-0.1,0.5-0.3,1-0.5,1.5
			C170.3,113.1,170.3,113.6,170.3,114z M171.9,119.5c0,0.1,0.2-2.1,0.7-6.6c-0.1-0.4-0.2-0.9-0.2-1.4c-0.1,1.7-0.2,3.4-0.5,5
			l-0.2,3.3l0-0.2l-0.1,0.9v0.1l0.2-0.7L171.9,119.5z"/>
		<path class="st1" d="M214,190c0.2,1.2,0.3,2.3,0.4,3c0.1,0.6,0.1,0.9,0,1c-0.2,0.1-0.3-0.1-0.5-0.7c-0.2-0.8-0.4-1.9-0.6-3.2
			c-0.2-1-0.3-2.1-0.4-3.4c-0.3-2.1-0.5-4.4-0.7-7c-0.3-4.6-0.5-9.4-0.7-14.4l-0.1-3.1h0c-0.1,0-0.2-0.1-0.2-0.2c0,1.1,0,2.3,0,3.6
			c0.4,4.2,0.6,7.6,0.6,10.2c0,0.9-0.1,3.2-0.2,6.9c0.2,3.2,0.5,6,0.8,8.4c0,0.1,0,0.2,0,0.2c0,0.1-0.1,0-0.1-0.1
			c-0.3-1.6-0.6-3.5-0.9-5.9c-0.1,0.3-0.2,0.5-0.3,0.5c-0.1,0-0.3-0.2-0.4-0.7l0.1,1.4c0,0.3,0,0.5-0.1,0.5c-0.1,0-0.1-0.2-0.1-0.5
			c-0.1-1.6-0.1-3.4-0.2-5.7c-0.1-2-0.3-4.2-0.4-6.8c-0.1,0.3-0.2,0.6-0.3,0.7l0,1c0.1,1.3,0.4,4.5,0.8,9.7c0.2,2.1,0.3,3.7,0.4,4.9
			c0.1,0.9,0.2,1.7,0.3,2.4c0.1,0.9,0.3,1.7,0.4,2.3c0,0.2,0,0.2,0,0.2c-0.1,0-0.1-0.1-0.1-0.2c-0.2-0.7-0.3-1.6-0.5-2.8
			c-0.1-0.8-0.2-1.8-0.3-3v0c0,0.1,0,0.1,0,0c0-0.1,0-0.2,0-0.3c0-0.1,0.1-0.1,0.1,0c-0.1-1.3-0.3-3.2-0.5-5.5
			c-0.2-2.7-0.3-4.5-0.4-5.5c0.2,4.6,0.3,7.9,0.4,10.1l0.2,1.1c0,0.1,0,0.2,0,0.3c0,0-0.1,0-0.1-0.1l0-0.3c0,0.7,0,1.1-0.2,1.1
			c-0.2,0-0.3-0.4-0.4-1.2c-0.2-1.5-0.3-3.3-0.4-5.3l0-0.6l-0.1-0.6c0.1,3.6,0.2,6.3,0.3,8.2c0,0.3,0,0.4-0.1,0.4
			c-0.1,0-0.1-0.1-0.1-0.4c-0.3-2-0.5-4.4-0.7-7.3c-0.2-2.1-0.3-4.5-0.5-7.3l-0.5-2.8c0,0.1-0.1,0.2-0.3,0.4
			c0.1,1.7,0.3,3.9,0.6,6.6c0.4,3.3,0.6,5.5,0.7,6.6c0,0.2,0,0.3,0,0.3c-0.1,0-0.1-0.1-0.1-0.2c-0.1-0.9-0.2-2.1-0.4-3.7
			c-0.2-1.6-0.3-2.8-0.4-3.7c-0.3-3-0.5-4.9-0.6-5.7v0c0.1,1.1,0.4,4.9,0.9,11.3c0,0.2,0,0.3,0,0.5c0,0,0,0,0,0.1
			c0.1,0.4,0.2,0.9,0.3,1.5c0,0.1,0,0.2,0,0.3c0,0.1-0.1,0-0.1-0.1c-0.1-0.7-0.2-1.2-0.3-1.5c0-0.1,0-0.2,0-0.2
			c-0.1,0-0.1-0.1-0.1-0.3c-0.3-2.1-0.7-5-0.9-8.7c-0.2,0.2-0.3,0.3-0.4,0.5c0.1,1.2,0.2,2.2,0.4,3.2c0,0.1,0,0.2,0,0.3
			c0,0.1-0.1,0-0.1-0.1c-0.1-0.7-0.3-1.7-0.7-3.1c-1.4,1.5-2.9,2.9-4.5,4.2c-2.2,1.7-4.5,2.9-6.8,3.7c-1.8,0.8-3.6,1.3-5.3,1.5
			c0.2,0,0.5,0,0.7,0c1.4,0,2.9-0.2,4.4-0.7c1.2-0.4,2.4-1,3.7-1.7c1.9-1.1,3.9-2.7,6.2-4.8c0.1-0.1,0.2-0.1,0.2-0.1
			c0,0,0,0.1-0.1,0.2c-1.1,1-2,1.8-2.9,2.5c-1.1,0.9-2.2,1.6-3.2,2.2c-2.1,1.2-4.1,2-6.1,2.5c2-0.3,4-1,6.1-2.2
			c1.6-0.9,3.3-2.1,5.1-3.6c0.1-0.1,0.3-0.2,0.4-0.3c0,0,0-0.1,0-0.1c0.2-0.2,0.5-0.6,1.1-1.2c0.1-0.1,0.2-0.2,0.3-0.2
			c0.1,0,0,0,0,0.1c-0.6,0.6-0.9,1-1.1,1.2c-0.1,0.1-0.1,0.1-0.2,0.1c0.1,0,0,0.1-0.2,0.3c-1.5,1.5-3.2,2.8-5,3.8
			c-2.1,1.2-4.2,2-6.4,2.4c0,0.1-0.1,0.1-0.2,0.1c-0.4,0.2-1,0.3-1.7,0.3c-0.2,0-0.4,0-0.5,0c-1.2-0.1-2.3-0.3-3.4-0.7
			c-1.1-0.4-2.2-0.9-3.1-1.6c-0.4-0.2-0.9-0.5-1.3-0.9c-1.4-1.1-2.6-2.6-3.6-4.4c0,0.1,0,0.2,0,0.2c-0.2,0-0.3-0.2-0.6-0.8
			c-0.1-0.2-0.2-0.5-0.3-0.7c0.2,0.7,0.5,1.4,0.8,2.1c0,0.1,0.1,0.2,0.1,0.3c0.4,0.8,0.9,1.5,1.4,2.2c0.6,0.8,1.3,1.5,2.1,2.2
			c0.8,0.7,1.7,1.2,2.6,1.6c0.9,0.4,1.9,0.7,2.9,0.8c0.9,0.2,1.9,0.2,2.9,0.1c1.6-0.1,3.3-0.5,5-1.2c1.4-0.6,2.8-1.3,4.2-2.2
			c0.1-0.1,0.2-0.2,0.3-0.2c0.1,0,0.1,0,0,0.1c-1.8,1.4-3.5,2.4-5,3.1c-1.1,0.5-2.1,0.8-3.2,1c-1.3,0.3-2.6,0.4-3.9,0.2
			c-1.8-0.2-3.5-0.7-5.1-1.6c-1.5-0.9-2.8-2-4-3.5c-0.9-1.2-1.8-2.6-2.5-4.1c-0.6-1.3-1.1-2.7-1.5-4.2c-0.1-0.3-0.1-0.7-0.2-1.1
			l-0.1-0.6c0-0.1,0-0.3-0.1-0.7c-0.1-0.8-0.2-1.6-0.2-2.3c-0.1-1.7,0-3.3,0.2-4.8c0.2-1.7,0.7-3.4,1.4-4.9c0.7-1.7,1.6-3.2,2.7-4.6
			c1.5-1.8,3.2-3.4,5.3-4.7c1.8-1.2,3.9-2.1,6.1-2.7c2.1-0.6,4.2-1,6.4-1.1c2.1-0.1,4.1,0,6.1,0.4c-0.2-1-0.3-1.9-0.4-2.6
			c-0.3-1.2-0.5-2.3-0.8-3.1c-0.2-0.7-0.4-1.1-0.6-1.5c0,0,0,0,0,0l0,0l-0.2,0c-0.2-0.1-0.5-0.1-0.8-0.1c-0.9,0-1.9,0.1-3,0.4
			c-1.1,0.3-2.2,0.8-3.3,1.4c-0.8,0.5-1.5,0.9-2.1,1.1c-0.7,0.3-1.1,0.4-1.4,0.2c-0.4-0.2-0.4-0.7,0-1.5c-0.2,0.1-0.3,0.2-0.4,0.3
			c-0.2,0.1-0.4,0.3-0.6,0.4c-0.6,0.5-1,0.8-1.3,0.9c-0.2,0.1-0.3,0.2-0.4,0.2c-0.3,0.1-0.7,0.3-1.1,0.7c-0.1,0.1-0.3,0.2-0.5,0.4
			c-0.2,0.2-0.4,0.3-0.4,0.4l-0.2-0.1l0,0.1c-0.2,0.5-0.4,0.7-0.5,0.8H184c-0.3-0.1-0.6-0.3-0.8-0.7c-0.1,0-0.2-0.1-0.3-0.2
			c-0.3,0.5-0.6,0.6-0.8,0.3c-0.1,0.3-0.2,0.3-0.2-0.1c0-0.2,0-0.3,0-0.4c-0.1,0.1-0.1,0.3-0.2,0.4l0,0.5c0,0.3,0,0.5,0,0.8
			c0,0.3,0.1,0.5,0.1,0.7c0.1,0.7,0.1,1,0.1,1l-0.1,0.7c0,0.1-0.1,0.1-0.2,0.1c0,0-0.1-0.1-0.1-0.1c0,0.1,0.1,0.3,0.3,0.7l0.1,0.2
			c-0.1,0.1-0.1,0.1,0,0.2l0,0.1c-0.2-0.2-0.3-0.2-0.3-0.2c0,0-0.1-0.1-0.1-0.1c-0.1-0.2-0.2-0.3-0.3-0.5c-0.1-0.2-0.1-0.5-0.1-0.8
			v-0.1l-0.1-0.1l0-0.2l-0.1,0.1l0-0.4l0,0.5c-0.1-0.3-0.2-0.6-0.2-1c0-0.1-0.1-0.2-0.1-0.5c0,0.1,0-0.2-0.1-0.9l0,0
			c0-0.4,0-0.8,0-1.2c0-0.3,0.1-0.7,0.2-1.1c0-0.1,0.1-0.1,0.1-0.2c0-0.1,0-0.3,0-0.5c0.1-0.1,0.1-0.3,0.2-0.5l0-0.1
			c0-0.1,0-0.2,0.1-0.5l0-0.1c0.1-0.2,0.1-0.4,0.2-0.6c0.1-0.4,0.3-0.8,0.5-1.2c0.2-0.2,0.3-0.4,0.5-0.7l-0.2,0.2c0,0-0.1,0-0.1,0
			c0,0,0,0,0,0c-0.8,0.9-1.4,1.9-1.8,3c-0.2,0.5-0.3,1-0.4,1.5c0,0.2,0,0.4,0,0.5c0,0.1,0,0.1,0,0.2c0,0.1,0,0.1,0,0.2
			c0-0.2,0-0.3,0-0.3c0,0.1,0,0.1,0,0.1c0,0,0,0,0-0.2c0.2-1,0.5-2,1-2.9c0.2-0.3,0.2-0.4,0.2-0.2c0,0.2-0.1,0.4-0.2,0.7
			c-0.4,0.8-0.6,1.7-0.7,2.7c-0.1,0.6-0.1,1.2,0,1.8c0.1,0.4,0.1,0.7,0.2,1c0.4,1.5,0.5,2.2,0.5,2.2c0,0,0,0.1,0,0.1
			c0,0.1,0,0.1,0,0.1c-0.1,0.1-0.2,0-0.3,0c-0.3-0.3-0.7-0.8-1-1.4c-0.2-0.5-0.4-1-0.5-1.5c0,0.2,0,0.3,0,0.4c0,0.3,0.1,0.8,0.3,1.8
			c0.1,0.5,0.1,0.8,0,0.9c0,0.2-0.1,0.2-0.3,0.1c-0.3-0.1-0.5-0.4-0.8-0.8c-0.3-0.6-0.6-1.2-0.8-1.9c-0.2-0.8-0.3-1.7-0.3-2.7
			c0-0.9,0.1-1.8,0.4-2.7c0.2-0.8,0.5-1.5,0.9-2.2c0-0.1,0,0-0.2,0.2c0.3-0.7,0.7-1.4,1.2-2.1c-0.3,0.4-0.6,0.8-0.9,1.3
			c0.6-1,1.4-2,2.2-2.9c0.7-0.7,1.5-1.2,2.2-1.7c-0.1,0.1,0.1-0.1,0.6-0.4c0.4-0.3,0.8-0.6,1.2-0.7c0.2-0.2,0.3-0.2,0.2-0.1
			c1.9-1.3,3.8-2.1,5.7-2.6c0.8-0.3,1.5-0.5,2.2-0.6h0h-0.5c-0.2,0.1,0.3,0,1.5-0.2c0,0-0.1,0-0.1,0c-0.1,0-0.1-0.1-0.1-0.1
			c1.7-0.4,3.3-0.6,4.7-0.7c1.9,0,3.6,0.3,5.1,0.9c0.1,0,0.3,0.1,0.4,0.1c0.8,0.2,1.6,0.5,2.3,0.9c0.8,0.5,1.6,1.1,2.2,1.8
			c-0.4-0.5-0.9-1-1.5-1.5c0.7,0.4,1.2,0.9,1.7,1.5l0.2,0.2l0.1,0.1l0-0.1v0l0,0l0,0l0.1,0.1l0.1,0.1c0.1,0.1,0.1,0.2,0.2,0.3
			c0.2,0.3,0.4,0.7,0.7,1.1c0.4,0.7,0.7,1.6,0.9,2.5c0.2,0.7,0.3,1.4,0.4,2.2c0.2,1.3,0.2,2.3,0,3.1c0.3,2,0.6,4.4,0.9,7.4
			c0.2,1.7,0.3,4.1,0.6,7.2c0,0.2,0,0.3,0,0.5c0,0.1,0,0.2,0,0.3l-0.3,0l0,0.2c0.1,0.1,0.1,0.3,0.2,0.4V160c0-0.2,0-0.2,0-0.2
			c0,0,0,0.1,0,0.2l0.1,11.4c0,0.2,0,0.2,0,0.2c0,0,0-0.1,0-0.2l-0.1-10.3l-0.2,0c-0.2,0-0.3,0-0.6-0.1c0.2,5.2,0.3,8.5,0.4,9.8
			c0.2,3.6,0.5,6.7,0.7,9.4c0.2,2,0.4,4.2,0.7,6.5c0.1,1.2,0.2,1.8,0.2,1.8S213.9,189.1,214,190z M180.9,147.2c0,0.1,0,0.2,0,0.3
			L180.9,147.2z M190.6,133.4c-0.3,0-0.5,0.1-0.7,0.1c-0.2,0-0.3,0.1-0.4,0.1c-1.3,0.6-2.5,1.2-3.5,1.7c-1,0.5-1.8,1.1-2.6,1.7
			c-0.4,0.5-0.7,0.9-1,1.3c0.4-0.4,0.9-0.9,1.5-1.3c0.9-0.7,1.8-1.3,2.9-1.9c1-0.6,2-1.1,3-1.5h-0.2
			C190,133.6,190.3,133.5,190.6,133.4L190.6,133.4z M183.7,176.2c0.1,0.2,0.2,0.5,0.3,0.9c0.6,1.5,1.3,2.7,2.2,3.5
			c0.9,0.8,1.9,1.2,3.2,1.3c1,0.1,2.2-0.1,3.4-0.6c1.2-0.4,2.3-1,3.5-1.7c1.5-0.9,3.1-2.1,4.6-3.6c1.4-1.4,2.7-2.8,3.7-4.3
			c0-0.1,0.1-0.1,0.1-0.2c-0.1-0.3-0.1-0.6-0.1-0.9c-0.2-1.9-0.5-4.9-1-9.1c-0.1-0.2-0.2-0.2-0.3-0.3c0,0-0.1-0.1-0.3-0.2
			c-0.3-0.1-0.5-0.2-0.7-0.4c-0.1-0.1-0.2-0.1-0.1,0c-0.5-0.3-1.7-0.7-3.6-1.3c-0.6-0.1-1.1-0.1-1.5-0.2l0.3,0.1
			c-0.1,0-0.3,0-0.5-0.1c-0.2,0-0.3-0.1-0.5-0.1c0,0,0.1,0.1,0.1,0.1l0,0.1c-0.9,0-1.9,0.1-3,0.3c-0.5,0.1-1.4,0.3-2.8,0.7l-0.2,0
			c-0.3,0.2-0.6,0.4-1,0.7c-0.4,0.3-0.8,0.5-1,0.7c0.3-0.2,0.5-0.3,0.7-0.4l-1.5,1.2c-0.7,0.5-1.3,1.1-2,1.6
			c-0.9,0.8-1.4,1.3-1.6,1.4c-0.7,1.5-1.1,3.3-1,5.2c0,0.5,0,0.9,0.1,1.4c0,0.3,0.1,0.5,0.1,0.7c0,0.1,0,0.2,0,0.3l0.1,0.4
			c0.2,1.1,0.5,2,0.8,2.9c0.1,0.2,0.1,0.4,0,0.4c-0.1,0-0.1-0.1-0.2-0.3c-0.3-0.6-0.5-1.3-0.7-2c-0.1-0.3-0.2-0.7-0.3-1.1l0-0.3
			c0-0.1,0-0.2,0-0.2l0-0.3l0-0.2c-0.2-1.5-0.2-2.9,0-4.2c-0.3,1.1-0.4,2.3-0.3,3.5c0,0.3,0,0.6,0,0.9l0,0.4l0.1,0.5
			c0.1,0.7,0.2,1.3,0.4,1.9c0.1,0.3,0.1,0.4,0.1,0.4S183.5,175.9,183.7,176.2z M183.3,142.6L183.3,142.6
			C183.3,142.6,183.3,142.6,183.3,142.6z M189,135.7c-1.1,0.5-2.1,1.1-3.1,1.8c-0.8,0.6-1.7,1.3-2.6,2.2c0.4-0.3,0.9-0.6,1.5-0.8
			c0.3-0.3,0.6-0.6,0.9-0.8c0.8-0.7,1.8-1.3,2.8-1.8c-0.1,0,0-0.1,0.2-0.2L189,135.7z M193.5,184.2c1.4-0.5,2.8-1.2,4.3-2.1
			c1.3-0.8,2.6-1.7,3.8-2.8c1.2-1,2.4-2.1,3.5-3.3c0,0,0.1-0.1,0.2-0.3c-0.3-1.2-0.5-2.3-0.6-3.4c-1,1.5-2.2,2.9-3.7,4.3
			c-1.6,1.6-3.3,2.8-5,3.8c-2,1.2-3.9,1.8-5.6,1.9c-0.9,0.1-1.8,0-2.6-0.2c-0.8-0.3-1.5-0.7-2.1-1.3c-0.5-0.5-1-1.1-1.4-1.9l0,0
			c-0.1,0.1-0.2,0-0.3,0c0.5,0.9,1,1.7,1.6,2.2c0.9,0.7,2,1.1,3.3,1.3c1.2,0.1,2.5,0,4-0.4c1.9-0.5,3.8-1.2,5.7-2.2
			c2.1-1.5,4.1-3.3,5.9-5.4c0.1-0.1,0.1-0.2,0.2-0.2c0.1,0,0,0,0,0.1c-1,1.5-2.3,2.9-3.8,4.2c0.3-0.1,0.5-0.1,0.6,0
			c0.1,0.1,0,0.3-0.3,0.7c0.3-0.2,0.7-0.5,1.1-0.8c0.3-0.2,0.4-0.3,0.5-0.2c0,0.1-0.1,0.2-0.3,0.4c-1.5,1.2-3,2.3-4.5,3.1
			c-2.1,1.2-4.1,2.1-6,2.4c0.3,0,0.6,0.1,0.7,0.2c0.3-0.1,0.5-0.1,0.5-0.1S193.2,184.3,193.5,184.2z M184.7,146.3
			c-0.2-0.1-0.4-0.3-0.6-0.5C184.3,146,184.5,146.2,184.7,146.3L184.7,146.3z M200.2,180.6c-1.5,1.2-3,2.1-4.5,2.9
			c1.4-0.6,2.9-1.4,4.4-2.4c1.3-0.9,2.7-1.9,3.9-3.1c0.2-0.2,0.5-0.5,0.7-0.8c0.1-0.1,0.2-0.2,0.2-0.2c0,0,0,0-0.1,0.1l-0.2,0.3
			c0.4-0.4,0.8-0.6,0.9-0.6c-0.1-0.2-0.1-0.5-0.1-0.8c-0.3,0.3-0.6,0.7-0.9,0.9c0.1-0.1,0.1,0,0.1,0c-0.1,0.1-0.1,0.2-0.2,0.2
			c-0.1,0-0.1,0,0,0c-1.3,1.3-2,2-2,2S201.7,179.5,200.2,180.6z M198.8,158.4c0.2,0.1,0.3,0.1,0.5,0.2l0.3,0.1
			c1.3,0.2,2.6,0.7,3.8,1.5l0-0.3c-0.6-0.3-1.1-0.5-1.7-0.8c-0.7-0.2-1.4-0.4-2.2-0.6l0.1,0C199.4,158.5,199.1,158.5,198.8,158.4
			L198.8,158.4z M200,182c2.1-1.3,4-2.8,5.8-4.5c-0.1-0.2-0.1-0.5-0.1-0.6c-0.1,0.3-0.3,0.5-0.7,0.9c-1.2,1.3-2.6,2.4-4.1,3.5
			l-0.5,0.4L200,182z M202.2,140.4c0.1-0.1,0.2-0.1,0.2-0.1h0l0,0l0-0.1l0,0c0.6-0.5,0.6-0.5,0,0c-0.5,0.4-1.1,0.8-1.8,1.3
			c0.2-0.1,0.3-0.2,0.4-0.3c0.3-0.2,0.6-0.4,0.8-0.6L202.2,140.4z M200.8,157.4c0.8,0.2,1.6,0.5,2.3,0.8c0,0,0-0.1,0-0.2
			c-0.6-0.2-1.2-0.5-1.8-0.6c0.1,0.1,0,0.1-0.2,0L200.8,157.4z M205.1,163.8c0.2,3.7,0.4,7.5,0.8,11.3c0.1-0.2,0.3-0.4,0.5-0.6
			l-0.1-0.6c0,0-0.1-0.1-0.1-0.2c-0.2-0.3-0.2-0.7-0.2-1.4v-0.4l0-5.2c-0.1-0.4-0.1-0.8-0.1-1.2c0-0.4-0.1-1-0.2-1.7
			c-0.2-0.2-0.3-0.4-0.4-0.6v0c0,0,0,0.1,0,0.1c-0.1-0.1-0.2-0.2-0.3-0.3c0,0,0,0.1,0,0.1c0.1,0.1,0.1,0.1,0,0c0.1,0.1,0,0.1,0,0
			c0,0.3,0,0.5,0,0.5S205.1,163.7,205.1,163.8z M206.6,176.8c0-0.2,0-0.6,0-1c-0.1-0.5-0.1-0.8-0.1-1c-0.2,0.2-0.3,0.4-0.5,0.6
			c0.1,0.7,0.1,1.3,0.2,1.9L206.6,176.8C206.5,176.8,206.6,176.8,206.6,176.8z M206.8,174L206.8,174c0-0.1,0-0.1,0-0.1
			c0-0.1,0-0.1,0-0.1S206.8,173.8,206.8,174z M207.1,173.7c0.1-0.1,0.2-0.2,0.3-0.3l-0.4-1.9l0,0.6C207,172.6,207,173.1,207.1,173.7
			z M212.4,158.5c-0.6-5.6-1-8.9-1.1-9.9c0.1,1.2,0.2,4,0.4,8.3c0.2,0.3,0.3,0.6,0.4,0.8C212.2,158,212.3,158.2,212.4,158.5z
			 M211.8,159.6c0.2,0,0.3,0,0.4,0v0C212.1,159.6,211.9,159.6,211.8,159.6L211.8,159.6z"/>
		<path class="st1" d="M215.9,167.1c-0.6-1-0.6-2.2,0-3.7l-0.1,0.1c0-0.2,0.1-0.6,0.2-1.1l-0.3,0.7c0.3-1,0.6-1.9,1-2.6
			c0-0.8,0-2.2,0-4.2c0-7.7-0.1-12.5-0.2-14.3c-0.2-2.1,0.1-3.4,0.9-3.7c0.4-0.2,0.8,0.2,1.2,0.9V139l0-0.7c0-0.7,0.2-1.2,0.4-1.6
			l0.2-0.5c0.2-0.2,0.4-0.6,0.7-1.2c0.3-0.6,0.5-1,0.7-1.2l0.2,0.1l0-0.1c0.1-0.5,0.3-0.8,0.5-0.9h0.3c0.3,0.1,0.6,0.3,0.9,0.6
			c0.1,0,0.2,0,0.4,0c0.3-0.4,0.6-0.5,0.8-0.3c0.1-0.3,0.2-0.3,0.3,0c0,0.1,0.1,0.2,0.1,0.3v0c0-0.1,0.1-0.2,0.1-0.3v-0.3l0-0.9
			c0.1-0.4,0.1-0.6,0.1-0.6c0.3-0.3,0.5-0.5,0.7-0.4c0,0,0.1,0,0.1,0v-0.4c0-0.1,0.1-0.1,0.1-0.2c0.1,0,0.1,0,0.1-0.1h0l0.2,0.1
			c0,0,0.1,0.1,0.1,0.1l0.1,0.3l-0.2,0.5l0.1,0.1l-0.1,0.1l0.1-0.1l0,0.2l0.1-0.3c0,0.4,0,0.6,0,0.8c0,0.1,0,0.3,0,0.4
			c0,0,0.1,0,0.1,0c0,0.4,0,0.8,0,1.2c0,0-0.1,0.1-0.1,0.1c0.1,0.1,0.1,0.1,0.1,0.2v0.3l0,0l0.1,0.2v0l0.4,1.1c0,0.2,0,0.3,0,0.5
			l0-0.1c0,0,0.1,0,0.1,0h0c0.1-0.7,0.1-1.6,0.1-2.8c0-0.1-0.1-0.1-0.1-0.2V133c0,0,0,0,0-0.1v0.1l0,0l0,0.1l-0.2,1.6
			c0,0.2,0,0.2-0.1,0.1c-0.1-0.1-0.1-0.2-0.1-0.4c0-0.4,0-1.1,0-2.3c0-0.2-0.1-0.4-0.1-0.5c-0.1-0.8,0-1.2,0.3-1.2
			c0.3-0.1,0.4-0.1,0.5-0.1c0.3,0.3,0.5,0.7,0.7,1.5v-0.2c0.1-0.7,0.3-1.1,0.5-1.2c0.2-0.2,0.5-0.1,0.8,0.3c0.7,1,1,2.3,0.7,3.8
			l0.1-0.1c0,0.3,0,0.6,0,1.1l0.1-0.7c-0.1,1.4-0.2,2.5-0.5,3.4l0,0.4c0,0.3,0,0.6-0.1,0.8c0,0.6-0.1,1.1-0.1,1.6
			c1.3-1.4,2.8-3,4.6-4.6c0.1-0.2,0.2-0.2,0.3-0.1c0.1,0,0.1,0.1-0.1,0.2c-2.2,2.4-3.7,4.1-4.5,5.1c0.8-0.8,2.3-2.1,4.3-3.8l0.6-0.5
			c0.1-0.1,0.3-0.3,0.6-0.4c0.7-0.6,1.6-1.3,2.8-2.3c1.3-1,2.2-1.8,2.8-2.2c0.8-0.7,2.3-1.9,4.6-3.8c2.7-2.2,4.9-3.9,6.7-5
			c0.4-0.2,0.6-0.3,0.8-0.2c0.2,0.2,0,0.4-0.3,0.6c-0.9,0.7-3.2,2.5-7,5.5c-2.6,2-5,3.9-7.3,5.6c-0.5,0.4-1,0.8-1.6,1.3c0,0,0,0,0,0
			c0.1,0.1,0.1,0.2,0,0.3c0.6-0.4,1.2-0.9,1.8-1.3c1.9-1.8,3.6-3.1,5.1-4.1c0.8-0.5,2.1-1.2,3.8-2.1c2.1-1.6,3.5-2.6,4.3-3.1
			c0.1-0.1,0.1-0.1,0.1-0.1c0.1,0,0.1,0.1,0,0.1c-0.7,0.6-1.7,1.4-2.9,2.4c0.3,0,0.4,0.1,0.5,0.2c0.1,0.2,0,0.3-0.1,0.6l0.7-0.5
			c0.2-0.1,0.3-0.1,0.3,0c0.1,0.1,0,0.2-0.2,0.3c-1.2,0.8-2.2,1.4-3,1.9l-3.4,2.6c0.2,0,0.4,0,0.6,0l0.5-0.4c3-2.6,6.2-5,9.8-7.1
			c0.1-0.1,0.2-0.1,0.2,0c0,0,0,0.1-0.1,0.1c-1.1,0.6-2.1,1.3-3.1,2c0.1,0,0.1,0,0,0.1c0,0.1-0.1,0.1-0.2,0.1c-0.1,0-0.1,0,0-0.1
			c-1.9,1.3-3.8,2.7-5.5,4.1c1.9-1.3,3.7-2.5,5.2-3.4l0.5-0.5c0.1-0.1,0.1-0.1,0.2-0.1c0,0,0,0.1,0,0.1l-0.1,0.1
			c0.4-0.2,0.7-0.3,0.8-0.1c0.1,0.2,0,0.5-0.5,0.7c-0.7,0.5-1.6,1.1-2.7,1.8l-0.3,0.2l-0.2,0.3c1.2-0.7,2.7-1.6,4.4-2.6
			c0.2-0.1,0.3-0.1,0.3,0c0.1,0.1,0,0.2-0.1,0.3c-0.2,0.1-2.5,1.9-7.2,5.4c-0.6,0.7-1.2,1.5-1.9,2.4l0.3-0.2c0.9-0.6,2-1.6,3.5-3
			c1.5-1.3,2.7-2.3,3.5-3c0.1-0.1,0.1-0.1,0.1,0c0,0,0,0.1,0,0.1c-0.3,0.2-1.4,1.2-3.4,3c-1.2,1-2.1,1.9-2.7,2.5
			c0.6-0.5,1.5-1.2,2.8-2.2c1.2-1,2.1-1.7,2.8-2.2c0.1-0.1,0.1-0.1,0.2-0.1c0,0,0-0.1,0-0.1c0.2-0.2,0.4-0.4,0.7-0.7
			c0.1-0.1,0.1-0.1,0.2,0c0,0,0,0,0,0.1c-0.3,0.3-0.5,0.5-0.7,0.7c0,0.1-0.1,0.1-0.1,0.1c0,0,0,0.1-0.1,0.2c0.1-0.1-1.7,1.5-5.4,4.8
			c0,0.1,0,0.1,0,0.2c-0.1,0.2-0.3,0.4-0.6,0.6l-0.2,0.1c-0.4,0.3-1.3,0.8-2.7,1.7c-0.1,0.2-0.3,0.4-0.5,0.6
			c-0.9,1.1-1.5,1.7-1.8,2.1c0.1,0,0.2,0,0.2,0c0.1,0.1,0,0.3-0.2,0.5l-0.3,0.2c0.3-0.2,0.6-0.4,0.8-0.6c0.1,0,0.1-0.1,0.1-0.1
			c0.3-0.3,0.6-0.5,0.9-0.7c1.6-1.3,4.1-3.6,7.6-6.9c0-0.1,0.1-0.1,0.1-0.1s0.1,0,0,0.1c-0.3,0.3-1,1.2-2,2.5
			c-0.8,1.1-1.5,1.9-2.2,2.5c-2.1,2.2-4,4.3-5.6,6.1c-1.7,1.6-3.4,3.7-5.1,6.2c-2,3.2-3.5,6.3-4.3,9.1c-0.3,1.4-0.9,2.2-1.7,2.2
			c-0.5,0-0.8-0.3-1-0.9l0,0.3l-0.2,0.5c0,0,0,0,0,0.1c-0.3,4.7-0.4,7-0.4,7.1c0,0.2,0,0.3-0.1,0.4c-0.1,0-0.1-0.1-0.1-0.3
			c0-1.5,0-3.6,0.1-6.3c-0.1,0.1-0.1,0.1-0.1,0.1c-0.3,2.1-0.5,3.7-0.6,5l0,0.8c0,0.2,0,0.5-0.1,0.8c-0.4,4.1-0.6,6.9-0.7,8.2
			c-0.1,2.4-0.1,4.7-0.1,6.9c0,5.1,0,8.3,0,9.6c0,0.5-0.1,0.8-0.3,0.9c-0.2,0.1-0.3-0.2-0.3-0.7c-0.3-8-0.1-14.9,0.5-20.9l0.3-2.3
			c0,0-0.1,0-0.1,0c-0.1,0-0.2-0.1-0.2-0.2c-0.1,0.8-0.2,1.7-0.4,2.6c0,3.3-0.2,5.8-0.4,7.5c-0.1,0.8-0.4,2.5-0.9,5
			c0,0.7-0.1,2.8-0.1,6.3c0,0.1,0,0.2,0,0.2c0,0,0,0,0-0.1c-0.1-1.2-0.2-2.7-0.2-4.4c-0.2,0.3-0.3,0.4-0.4,0.3
			c-0.2,0-0.3-0.2-0.4-0.5l-0.1,1c0,0.2-0.1,0.4-0.1,0.4c-0.1,0-0.2-0.1-0.1-0.4c0.1-1.2,0.2-2.6,0.3-4.2c0.1-1.7,0.1-3.3,0.2-5.1
			c-0.2,0.3-0.3,0.4-0.4,0.4l0,0.8c0,4.7-0.1,9.5-0.4,14.5c0,0.1,0,0.2,0,0.2c-0.1,0-0.1,0,0-0.1c0.1-1.5,0.1-2.9,0.2-4.4
			c0,0.1-0.1,0.1-0.1,0c0-0.1,0-0.1,0-0.2c0-0.1,0.1-0.1,0.1,0c0.1-2.7,0.2-5.4,0.2-8.1c-0.3,3.4-0.4,5.9-0.6,7.4l0.1,0.8
			c0,0.1,0,0.2-0.1,0.2c0,0,0,0,0-0.1l0-0.2c0,0.6-0.2,0.8-0.4,0.8c-0.3,0-0.3-0.3-0.3-0.9c0-1.2,0.1-2.5,0.2-3.9v-0.5l0-0.4
			c-0.3,2.6-0.5,4.6-0.7,6c0,0.2-0.1,0.3-0.1,0.3c-0.1,0-0.1-0.1-0.1-0.3c-0.1-3.2,0-6.8,0.2-10.8l-0.5-3.7l0,0.5
			c-0.2,1.5-0.2,3.3-0.1,5.6c0.1,2.8,0.2,4.6,0.1,5.5c0,0.1,0,0.2,0,0.2c0,0,0,0,0-0.1c0-0.7,0-1.6-0.1-2.7
			c-0.1-1.4-0.1-2.3-0.1-2.7c-0.1-2.2-0.1-3.7-0.1-4.4c0-0.3,0,2.6-0.1,8.6c0,0.1,0,0.2,0,0.3c0,0,0,0,0,0c0.1,0.3,0.1,0.7,0.1,1.2
			c0,0.1,0,0.2,0,0.2c0,0-0.1,0-0.1-0.1c0-0.5-0.1-0.8-0.1-1.1c0-0.1,0-0.1,0-0.2c-0.1,0-0.1,0-0.1-0.2c-0.2-1.6-0.2-4.5-0.2-8.8
			c0,0-0.1-0.1-0.1-0.1c-0.2-0.2-0.2-0.6-0.1-1l0-0.3c0-0.2,0.1-0.9,0.3-1.9c0.1-0.8,0.2-1.4,0.3-1.9c-0.1-0.3-0.1-0.6,0-0.9
			c-0.1-1.4-0.1-2.5-0.1-3.4c-0.1,0.1-0.1,0.1-0.2,0.1c-0.1-0.1-0.2-0.3-0.1-0.6l0-0.5l-0.2,1.3c0,0.1,0,0.1,0,0.2
			c0,0.5-0.1,1-0.1,1.5c-0.3,3.7-0.3,7.9,0,12.7c0,0.1,0,0.1,0,0.2c0,0-0.1,0-0.1,0c-0.7-4.8-1.1-7.5-1.1-7.9
			c-0.1-3.2-0.2-6.6-0.2-10.1c-0.2,0-0.3,0-0.3,0S216,167.4,215.9,167.1z M221.1,133.8l0.7,0.3L221.1,133.8L221.1,133.8z
			 M221.5,191.6C221.5,191.7,221.4,191.7,221.5,191.6c-0.1-0.1-0.1-0.1-0.1-0.2c0-0.1,0.1-0.1,0.1,0
			C221.5,191.5,221.5,191.5,221.5,191.6z M225.2,132.6c0-0.1,0-0.1,0-0.1L225.2,132.6z M225.9,179.3c0,0.1,0,0.2-0.1,0.1
			c0,0,0,0,0-0.1c0.3-2.7,0.7-5.5,1.1-8.3c0-0.1,0-0.1,0-0.1c0.1,0,0.1,0.1,0,0.2C226.5,173.8,226.2,176.6,225.9,179.3z M226,131.4
			c-0.1,0-0.2-0.1-0.1-0.3l0-0.3l0,0.1C226.1,131,226.1,131.2,226,131.4z M226,130.8L226,130.8L226,130.8L226,130.8L226,130.8z
			 M226.5,137.2c-0.1,0.3-0.2,0.7-0.4,1.1c0.1,0.3,0.1,0.6,0.1,0.8c0,0.7,0,1.5,0,2.2c0.1,0,0.1,0,0.1,0.2v0.3l0.1-2.4
			c0-0.2,0-0.5,0-1.1C226.5,137.9,226.5,137.5,226.5,137.2z M226.7,133C226.7,133,226.7,133.1,226.7,133l0,0.2L226.7,133L226.7,133z
			 M228.4,138.3c-0.1-0.3-0.2-0.6-0.3-0.9c0,1.1,0,2.2-0.1,3.3l-0.1,1.9c0.2-0.2,0.2-0.3,0.2-0.2c0-0.5,0.1-1.2,0.1-2.1
			C228.3,139.2,228.4,138.5,228.4,138.3z M234.4,136.1c-0.1,0.1-0.1,0.1-0.1,0c0-0.1,0-0.1,0.1-0.2c1.8-1.4,3.8-2.8,5.9-4.3
			c0.1-0.1,0.1-0.1,0.1,0c0,0,0,0.1-0.1,0.1C238.2,133.2,236.2,134.6,234.4,136.1z M251,128.5c0-0.1,0.1-0.1,0.1-0.1
			c0.1,0,0.1,0,0,0C251.1,128.5,251.1,128.5,251,128.5C250.9,128.5,250.9,128.5,251,128.5z"/>
		<path class="st1" d="M240.3,152.3c0.1-0.9,0.2-1.7,0.4-2.6c0.4-1.4,1-2.8,1.8-4.2c0.7-1.2,1.6-2.3,2.6-3.3c1-1,2-1.8,3.2-2.6
			c0.9-0.6,1.8-1,2.8-1.4c1-0.3,1.9-0.5,2.9-0.6c0.8-0.1,1.5,0,2.2,0.1c0.6,0.1,1,0.3,1.1,0.5c0.2,0.2,0,0.4-0.5,0.6
			c0.2-0.1-0.4,0.1-2,0.5c0.3,0,0.7-0.1,1-0.1c0.6,0,1.1,0,1.6,0.1c0.7,0.1,1.5,0.3,2.1,0.6c0.5,0.3,1,0.5,1.4,0.8
			c0.3,0.3,0.6,0.5,0.8,0.7c0.7,0.8,1.1,1.5,1.5,2.1c0.4,0.8,0.7,1.5,0.7,2l-0.3,0l0.1,0.2c0.3,0.7,0.4,1.1,0.3,1.5l-0.2,0
			c-0.3,0-0.7-0.1-1.2-0.4c-0.1,0.1-0.2,0.1-0.3,0c0.1,0.6-0.1,0.8-0.5,0.7c0.1,0.3,0,0.3-0.2,0c-0.1-0.1-0.1-0.1-0.2-0.2h0
			c0,0.1,0,0.2,0,0.4l0.2,0.3c0.2,0.3,0.4,0.7,0.5,1c0.2,0.5,0.2,0.7,0.1,0.7c-0.1,0.4-0.2,0.7-0.4,0.7c0,0-0.1-0.1-0.1-0.1
			c0,0.1,0.1,0.3,0.1,0.6c0,0.1,0,0.1,0,0.2c0,0-0.1,0.1-0.1,0.1l0,0c-0.1-0.1-0.2-0.2-0.2-0.2l-0.1-0.1l-0.2-0.3v-0.6l-0.1,0l0-0.2
			l0,0.1l0-0.3l0,0.3c-0.2-0.3-0.3-0.6-0.4-0.8c-0.1-0.1-0.2-0.3-0.3-0.4l0,0c-0.1-0.2-0.2-0.3-0.3-0.5c-0.1-0.2-0.2-0.4-0.3-0.5
			c0,0,0-0.1,0-0.1c-0.1,0-0.1-0.1-0.2-0.1c-0.1-0.1-0.1-0.2-0.2-0.2l0,0c0,0-0.1,0-0.2-0.1l0,0c-0.3-0.2-0.6-0.3-0.9-0.3
			c-0.1-0.1-0.2-0.2-0.3-0.2c0,0,0.1,0,0.1,0c0,0,0,0.1,0,0.1c0,0,0,0.1,0,0.1c0.4,0.3,0.8,0.6,1.2,1.1c0.1,0.2,0.3,0.3,0.4,0.6
			c0.1,0.1,0.1,0.1,0.2,0.1c0,0,0,0.1,0,0.1c0,0,0.1,0,0.1,0v0l0,0c0,0,0.1,0,0.1,0c0,0,0,0-0.1-0.1c-0.2-0.5-0.5-0.9-0.7-1.3
			c-0.1-0.1-0.1-0.2,0-0.2s0.2,0.1,0.3,0.2c0.5,0.6,0.9,1.2,1.3,2c0.1,0.2,0.2,0.3,0.3,0.5c0.2,0.3,0.3,0.6,0.3,0.9
			c0,0.3,0,0.4-0.1,0.4c-0.2,0.2-0.3,0.2-0.4,0.2c-0.3-0.2-0.6-0.6-1.1-1.3c0,0.2,0,0.3,0,0.2c0.2,0.6,0.2,1,0,1.3
			c-0.2,0.2-0.4,0.2-0.8-0.1c-0.3-0.2-0.6-0.6-1-1.1c-0.4-0.4-0.6-0.7-0.7-0.9l0,0.1c-0.1,0-0.1-0.1-0.2-0.3l0.1,0.3
			c0-0.1-0.1-0.1-0.1-0.2c-0.1-0.1-0.1-0.2-0.1-0.2c-0.1-0.2-0.3-0.3-0.4-0.4c0,0-0.1,0-0.2,0c-0.2,0-0.3,0-0.5-0.1
			c-0.1,0-0.1,0-0.1,0c-0.4,0.1-0.9,0.2-1.5,0.4c-0.4,0.2-0.9,0.4-1.5,0.7c-0.4,0.4-0.7,0.7-0.9,0.9c0,0,0.1-0.1,0.3-0.1
			c-0.1,0.1-0.2,0.2-0.3,0.3c-0.1,0.1-0.2,0.2-0.3,0.3c0.2,0,0.3,0,0.2,0c-0.4,0.6-0.7,1.1-0.7,1.6v0.1h0h0h0v0.1l0,0.1
			c0,0.1,0,0.3,0,0.6l0,0.2c0,0.1,0,0.1,0,0.2c0,0.1,0,0.2,0,0.3l0,0.1c0.2,0.1,0.5,0.3,0.9,0.5c-0.1-0.1-0.2-0.2-0.2-0.3
			c0.1,0,0.2,0.1,0.3,0.1l0.2,0l0.3,0.1c0.3,0.1,1.4,0.4,3,0.8c1.4,0.3,2.4,0.7,3.1,1.1c1.9,0.3,3.5,0.8,4.8,1.5l0.3,0.2l0.2,0.1
			c0.2,0.1,0.3,0.2,0.5,0.3c0.3,0.2,0.7,0.4,1,0.7c0.7,0.5,1.3,1,2,1.6c2.4,2.3,4.1,5.1,5,8.4c0.1,0.4,0.2,0.6,0.1,0.7
			c-0.1,0-0.1-0.1-0.2-0.5c-0.7-2.3-1.7-4.3-3.2-6.2c-0.7-1-1.6-1.8-2.4-2.6c-0.5-0.4-0.9-0.7-1.4-1.1c-0.3-0.2-0.5-0.4-0.7-0.5
			l-0.4-0.2l-0.2-0.1l-0.1-0.1l0.3,0.2l0.3,0.2c0.2,0.2,0.4,0.3,0.6,0.5c0.4,0.3,0.8,0.6,1.2,0.9c0.7,0.7,1.4,1.4,2,2.2
			c1.2,1.5,2.2,3.2,2.9,5.1c0.2,0.5,0.4,0.9,0.5,1.4c0.1,0.4,0.2,0.9,0.3,1.5c0.5,2.5,0.4,5-0.1,7.4c-0.3,1.2-0.8,2.4-1.4,3.6
			c-0.3,0.6-0.6,1.2-1,1.7c-0.2,0.3-0.4,0.5-0.6,0.8c-0.3,0.3-0.5,0.6-0.7,0.9c-1.6,1.7-3.5,2.9-5.6,3.7c-2.2,0.8-4.4,1.1-6.7,0.8
			c-1.7-0.2-3.3-0.6-4.8-1.3c-1.6-0.7-2.9-1.7-4.1-3c-1.2-1.3-2.2-2.8-2.8-4.5c-0.6-1.7-0.8-3.4-0.7-5.2c0.1-1.1,0.2-1.7,0.5-1.8
			c0.1-0.1,0.1,0.4,0,1.5c-0.1,1.9,0.1,3.6,0.7,5.3c0.6,1.7,1.6,3.2,2.9,4.5c1.2,1.2,2.6,2.1,4.3,2.8c1.5,0.7,3.1,1,4.8,1.1
			c1.7,0.1,3.3-0.1,4.9-0.6c1.6-0.5,3.1-1.2,4.4-2.2c0.3-0.2,0.6-0.5,0.9-0.8c0.2-0.1,0.3-0.3,0.5-0.4l0.2-0.2l0.2-0.2
			c0.1-0.1,0.2-0.3,0.5-0.5c0.2-0.2,0.3-0.4,0.4-0.5c0.3-0.3,0.5-0.6,0.7-1c0.9-1.4,1.5-2.9,1.9-4.5c0.3-1.3,0.5-2.7,0.5-4.1
			c0,0,0,0,0,0c-0.1,0-0.1-0.1-0.2-0.3c0,1.6-0.2,3.1-0.6,4.5c-0.5,2.2-1.4,4.2-2.8,5.9c-0.1,0.1-0.2,0.3-0.3,0.4l-0.3,0.3
			c-0.2,0.2-0.4,0.4-0.6,0.6c-0.4,0.4-0.9,0.7-1.4,1c-1,0.7-2.1,1.2-3.2,1.5c-1.5,0.5-3.1,0.6-4.7,0.5c-1.5-0.1-2.9-0.5-4.3-1.1
			c-1.9-0.7-3.5-1.7-4.9-3c-1.4-1.5-2.4-3.2-2.9-5.2c-0.1-0.2-0.1-0.3,0-0.4c0-0.1,0.1,0,0.1,0.2c0.4,1.4,1,2.6,1.8,3.7
			c0.8,1.1,1.8,2,3,2.9c-0.3-0.4-0.4-0.6-0.3-0.7c0.1-0.1,0.4,0,0.8,0.2c-0.5-0.3-0.9-0.7-1.3-1.1c-0.3-0.3-0.4-0.5-0.3-0.5
			c0.1-0.1,0.2,0,0.5,0.3c1.6,1.6,3.6,2.7,6,3.1c2.8,0.4,5.4,0,7.8-1.4c-0.4,0.1-0.6,0.1-0.8,0c-0.4,0.2-0.7,0.3-1.1,0.5
			c-1.8,0.7-3.6,0.9-5.6,0.7c-2-0.2-3.8-1-5.3-2.1c-1.7-1.2-2.9-2.8-3.5-4.8c-0.3-1-0.5-2-0.5-3c0-1,0.1-2,0.4-3
			c0.1-0.2,0.1-0.3,0.1-0.3c0,0,0,0.1,0,0.3c-0.3,1.2-0.5,2.4-0.4,3.6c0.1,1.2,0.4,2.4,0.9,3.5c0-0.1,0-0.1,0.1,0
			c0.1,0.1,0.1,0.2,0.1,0.3c0,0.1,0,0.1,0,0c1,2,2.6,3.5,4.8,4.4c2,0.9,4.1,1.2,6.2,0.9c-2,0.2-3.9-0.1-5.7-0.9
			c-1.9-0.8-3.4-2.1-4.4-3.7c-0.3-0.3-0.5-0.7-0.8-1.1c-0.1-0.1-0.1-0.2-0.1-0.3c0,0,0.1,0,0.1,0.1c0,0.1,0.1,0.2,0.2,0.3
			c-0.2-0.3-0.3-0.6-0.3-0.9c0-0.2,0-0.4,0.1-0.4c0.1,0,0.4,0.4,0.8,1.2c0.9,1.7,2.3,3,4.1,3.9c0.2,0.1,0.4,0.1,0.6,0.2
			c0.2,0.1,0.4,0.1,0.6,0.1c-1.4-0.6-2.7-1.4-3.7-2.4c-1-1.1-1.7-2.3-2-3.7c-0.1-0.3-0.1-0.4,0-0.4c0.1,0,0.1,0.1,0.2,0.4
			c0.4,1.2,1,2.2,1.9,3.1c0.8,0.9,1.8,1.6,3,2.1c2.3,1,4.7,1.2,7.1,0.5c1.4-0.7,2.6-1.6,3.6-2.9c-0.2,0.2-0.3,0.3-0.4,0.4
			c-0.9,0.7-1.9,1.3-3,1.7c-1.1,0.4-2.2,0.7-3.4,0.7c-1.2,0-2.3-0.2-3.4-0.6c-1.2-0.4-2.2-1.1-3.1-1.9c-0.1-0.1-0.1-0.2-0.1-0.2
			c0,0,0,0,0.1,0.1c0.8,0.8,1.8,1.4,3,1.8c1.1,0.4,2.2,0.6,3.4,0.6c1.9,0,3.6-0.5,5.1-1.6c-1.5,0.9-3.2,1.4-4.9,1.4
			c-1.9,0-3.5-0.5-5-1.5c-0.2-0.1-0.3-0.2-0.3-0.3l-0.1,0c-0.4-0.2-0.8-0.5-1.1-0.9c-0.1-0.1-0.1-0.1-0.1-0.2c0,0,0,0,0.1,0
			c0.3,0.4,0.7,0.7,1,0.9c0.1,0,0.1,0.1,0.2,0.1c0-0.1,0.1,0,0.2,0c1.5,0.9,3.1,1.4,4.9,1.4c1.8,0,3.4-0.4,4.8-1.3
			c0-0.1,0-0.1,0.1-0.2c0.1-0.2,0.4-0.5,0.8-0.8c0.1-0.1,0.2-0.1,0.3-0.2c0.3-0.2,0.6-0.5,0.7-0.7c0.3-0.2,0.5-0.5,0.7-0.8
			c0.4-0.6,0.8-1.2,1.1-1.9c0-0.2,0.1-0.6,0.2-1c0.2-1.2,0.1-2.5-0.2-3.9c0,0.1-0.1,0.1-0.1,0.1c-0.1,0-0.2-0.2-0.2-0.7
			c-0.1-0.2-0.1-0.3-0.1-0.5c0.1,0.5,0.1,1,0.1,1.5c0,0.1,0,0.1,0,0.2c0,0.6,0,1.1,0,1.6c-0.1,1.2-0.4,2.3-0.8,3.4
			c-0.2,0.5-0.5,1-0.8,1.5l-0.2,0.3c0.1-0.1,0,0,0,0.1l-0.1,0.1c-0.2,0.2-0.4,0.4-0.6,0.6c-0.8,0.7-1.7,1.3-2.8,1.7
			c-1.1,0.4-2.2,0.5-3.4,0.5c-0.1,0-0.2,0-0.2-0.1c-0.1,0,0,0,0,0c1.4,0,2.7-0.4,3.8-1.1c0.5-0.3,1-0.7,1.5-1.1
			c0.3-0.2,0.5-0.5,0.7-0.7c0.1-0.1,0.2-0.3,0.3-0.4c0,0,0.1-0.1,0.2-0.3c0.9-1.3,1.3-2.9,1.3-4.6c-0.1-1.7-0.5-3.3-1.4-4.8
			c-0.4-0.8-0.9-1.5-1.5-2.1c-0.3-0.3-0.6-0.5-0.9-0.7c-0.2-0.1-0.3-0.2-0.5-0.3c-0.1,0-0.2-0.1-0.3-0.1l-0.3-0.1l-0.2-0.1l0,0h0
			l-0.1,0c-0.2-0.1-0.3-0.1-0.4-0.1c-0.3-0.1-0.8-0.2-1.3-0.2c0.2,0-1.1-0.1-3.7-0.4c-1.4-0.2-2.6-0.4-3.6-0.6
			c-0.3-0.1-0.7-0.2-1-0.3c-0.2-0.1-0.3-0.1-0.5-0.2c-0.2-0.1-0.4-0.2-0.6-0.2c-0.9-0.4-1.7-0.8-2.4-1.3c-1.5-1.1-2.7-2.4-3.5-4.1
			c-0.4-0.8-0.7-1.6-0.9-2.5l-0.1-0.3l0-0.3c-0.1-0.2-0.1-0.4-0.1-0.6c-0.1-0.3-0.1-0.7-0.1-1.1c0-0.2-0.1-0.3-0.1-0.5v-0.5l0-0.3
			c0-0.2,0-0.3,0-0.3c0-0.2,0-0.4,0-0.4S240.3,152.5,240.3,152.3z M252.2,149.2c0.2-0.1,0.3-0.1,0.4-0.2l0.3-0.1
			c0.6-0.5,1.3-0.8,2-0.9c0.5-0.1,0.9-0.1,1.3,0c0.2-0.1,0.4-0.2,0.6-0.2c-0.3-0.1-0.5-0.1-0.7-0.1c-0.5,0-1.1,0-1.7,0.2
			c-0.6,0.3-1.2,0.6-1.8,1c0,0,0.1,0,0.1,0C252.6,148.9,252.5,149,252.2,149.2L252.2,149.2z M253,146.9c-0.1,0.1-0.2,0.1-0.2,0.1
			c0.8-0.4,1.6-0.7,2.4-0.8c0.8-0.1,1.5-0.1,2,0.1c-0.4-0.2-0.7-0.4-0.9-0.5c-0.3,0-0.6,0.1-0.8,0.1c-0.8,0.1-1.5,0.4-2.3,0.7
			C253.2,146.7,253.2,146.8,253,146.9z M259.3,145.2c0,0.1,0.1,0.1,0.1,0.2C259.3,145.4,259.3,145.4,259.3,145.2z M261.2,148.6
			c0,0.1,0,0.2,0,0.2L261.2,148.6z M263.6,145.7c-0.3,0-0.6-0.1-0.9-0.1C263,145.6,263.3,145.7,263.6,145.7L263.6,145.7z"/>
		<path class="st1" d="M269.2,175.7c1.4-1.1,3.5-2.3,6.1-3.5c0-1.9,0.2-3.8,0.6-5.7c0.5-2.3,1.4-4.6,2.5-7c1-2,2.3-4,3.8-6
			c0.7-0.9,1.5-1.9,2.3-2.8c0.4-0.4,0.8-0.9,1.2-1.3l0.6-0.6l0.7-0.7c0.3-0.3,0.5-0.5,0.6-0.5l0.5-0.4l0.7-0.6c0.5-0.3,1-0.7,1.5-1
			c0.9-0.7,1.9-1.3,2.9-2c1-0.7,2-1.3,3-1.8l0.8-0.5l0.4-0.2l0.7-0.3c1-0.5,1.9-0.9,2.8-1.3c2.1-0.8,3.9-1.4,5.6-1.5
			c1.9-0.2,3.6-0.1,5.1,0.5c1.1,0.4,2.1,0.9,3,1.7c0.8,0.7,1.5,1.7,2.1,2.8c0.5,1,0.8,2.1,0.9,3.2c0.1,1.1,0.1,2.4,0,3.7
			c-0.2,1.2-0.4,2.5-0.8,3.9c-0.4,1.3-1,2.5-1.7,3.8c-0.3,0.6-0.7,1.2-1.2,1.8c-0.3,0.4-0.7,0.9-1.1,1.4c-0.5,0.7-1.1,1.3-1.7,2
			c-1.9,2.1-4.3,4.2-7.2,6.5c-2.2,1.7-4.8,3.6-7.5,5.4c-1.8,1.2-3.6,2.3-5.3,3.1c-1.7,0.8-2.7,1.1-3.1,0.9c-0.5-0.2,0-0.9,1.6-2.2
			l-0.9,0.6l-1.5,0.8c-0.3,0.2-0.6,0.3-0.9,0.4c0.1,0.2,0.2,0.4,0.4,0.6c0.1,0.1,0.1,0.2,0.1,0.2c0,0-0.1-0.1-0.2-0.2
			c-0.1-0.1-0.2-0.3-0.3-0.5c-0.1,0.1-0.3,0.1-0.4,0.2h0v0c1.2,1.7,2.8,3,4.8,3.8c1.9,0.9,4,1.2,6.1,1.1c3-0.2,5.7-1.3,8.1-3.4
			c2.2-1.9,3.9-4.4,5.4-7.5c0.4-1,0.7-1.6,0.9-1.6c0.1,0,0.1,0.1,0.1,0.4c-0.1,0.3-0.2,0.7-0.3,1.1c-1.4,3.6-3.3,6.4-5.8,8.4
			c-1.3,1.1-2.7,1.9-4.3,2.5c-1.6,0.6-3.2,0.9-4.9,0.9c-1.7,0-3.4-0.3-4.9-0.9c-1.6-0.6-3-1.5-4.2-2.7c-0.6-0.6-1.1-1.2-1.5-1.9
			l-0.1,0.1c1.2,1.9,2.9,3.4,5.1,4.4c1.5,0.7,3.1,1.2,4.8,1.5c1.7,0.2,3.4,0.2,5-0.2c2-0.6,3.9-1.5,5.7-3c1.6-1.3,3-3,4.3-4.9
			c0.1-0.2,0.2-0.3,0.3-0.3c0.1-0.1,0,0,0,0.2c-1.6,2.9-3.7,5.2-6.3,6.8c0.5-0.2,0.8-0.2,0.8,0c0,0.2-0.2,0.4-0.8,0.8
			c0.7-0.3,1.3-0.7,1.9-1.2c0.5-0.3,0.7-0.4,0.7-0.4c0,0.1-0.2,0.3-0.6,0.6c-2.6,1.9-5.4,2.9-8.6,3.1c-3.9,0.4-7.4-0.5-10.5-2.8
			c0.4,0.4,0.6,0.7,0.7,0.9c0.5,0.3,1,0.6,1.5,0.8c2.5,1.1,5.1,1.5,7.9,1.3c2.7-0.2,5.2-1,7.6-2.4c2.2-1.4,4.2-3.2,5.9-5.5
			c1.5-2.1,2.8-4.5,3.7-7.3c0.1-0.2,0.2-0.4,0.2-0.4c0.1,0,0,0.1,0,0.4c-1.2,3.4-2.8,6.3-4.8,8.7c0.2-0.1,0.2-0.1,0.1,0
			c-0.1,0.2-0.2,0.3-0.3,0.4c-0.2,0.1-0.2,0.1-0.1,0c-2.1,2.4-4.6,4.1-7.4,5.2c-2.9,1.1-5.9,1.4-8.9,0.9c2.8,0.6,5.6,0.4,8.4-0.4
			c2.7-0.8,5.1-2.3,7.2-4.3c0.4-0.4,0.8-0.9,1.2-1.5c0.1-0.2,0.2-0.3,0.3-0.3c0.1,0,0,0.1-0.1,0.3l-0.3,0.4c0.8-0.9,1.3-1.4,1.5-1.3
			c0.2,0.3-0.2,0.9-1.1,1.9c-2.2,2.4-4.7,4.2-7.5,5.2c-0.3,0.2-0.7,0.3-0.9,0.4c-0.3,0.1-0.7,0.2-1,0.3c2.4-0.5,4.6-1.5,6.6-3
			c1.9-1.3,3.6-3,5.1-5.1c0.3-0.4,0.5-0.6,0.5-0.6c0.1,0,0,0.3-0.3,0.7c-1.2,1.9-2.6,3.5-4.3,4.9c-1.7,1.5-3.7,2.6-5.7,3.4
			c-2.1,0.8-4.3,1.2-6.6,1.1c-2.3,0-4.5-0.4-6.7-1.3c-3.1-1-5.7-2.7-7.7-5.1c0.2,0.3,0.5,0.7,0.7,0.9c1.6,1.9,3.6,3.4,6,4.5
			c2.2,0.9,4.4,1.4,6.9,1.5c4.7,0.1,8.9-1.5,12.8-4.6c0.2-0.2,0.3-0.2,0.4-0.2s0,0.1-0.2,0.3c-1.8,1.5-3.8,2.6-5.9,3.4
			c-2.2,0.8-4.5,1.3-6.7,1.3c-4,0-7.7-1.2-10.9-3.5c3.1,2.4,6.6,3.6,10.6,3.7c3.7,0.1,7.3-0.8,10.6-2.8c0.3-0.2,0.6-0.3,0.7-0.4
			c0,0,0-0.1,0.1-0.1c0.8-0.6,1.6-1.2,2.2-1.9c0.2-0.2,0.3-0.3,0.4-0.3c0.1-0.1,0,0-0.1,0.2c-0.5,0.5-1.2,1.1-2.1,1.8
			c-0.1,0.1-0.3,0.2-0.4,0.2c0.1,0,0,0.2-0.4,0.4c-1.5,1.1-3.2,1.9-5,2.4c-1.9,0.6-3.8,0.9-5.7,0.9c-4.2,0-7.9-1.2-11.2-3.6
			c-0.1,0-0.2,0-0.4-0.1c-0.7-0.3-1.4-1-2.2-1.9c-0.2-0.2-0.4-0.5-0.6-0.7c-0.7-1-1.4-2-1.9-3.1c-0.2,0-0.4,0.1-0.6,0.1
			c0.8,1.5,1.7,2.8,2.8,3.9c2.1,2.2,4.5,3.7,7.4,4.7c2.7,0.9,5.5,1.3,8.4,1c0.2,0,0.4,0,0.6,0c0.2,0,0.1,0.1-0.1,0.1
			c-1.7,0.3-3.5,0.3-5.2,0.2c-1.8-0.2-3.5-0.5-5.2-1.1c-1.8-0.7-3.4-1.6-4.9-2.8c-1.7-1.3-3.1-2.9-4.2-4.7c-0.2-0.3-0.4-0.7-0.6-1
			c-0.5,0.1-0.9,0.2-1.2,0.2l0.2-0.3l-0.3,0.1c-1,0.3-1.7,0.5-2,0.4l0-0.3c0.1-0.3,0.4-0.8,1-1.4c-0.1-0.1-0.1-0.2,0.1-0.4
			c-0.8,0.1-1.1-0.1-0.8-0.5c-0.2,0.1-0.3,0.1-0.3,0c0-0.1,0.1-0.2,0.3-0.3c0.2-0.1,0.3-0.2,0.5-0.3c-0.2,0.1-0.4,0.1-0.6,0.1
			l-0.6,0.3c-0.7,0.3-1.3,0.6-1.9,0.8c-0.8,0.3-1.2,0.4-1.3,0.3c-0.5,0-0.8,0-0.8,0c-0.1,0-0.1-0.1-0.1-0.2c0-0.1,0.1-0.1,0.1-0.1
			c-0.3,0.1-0.6,0.2-0.9,0.3c-0.2,0.1-0.3,0.1-0.3,0c0-0.1-0.1-0.1-0.2-0.1c0,0,0,0,0,0c0.2-0.2,0.3-0.2,0.3-0.3
			c0,0,0.1-0.1,0.1-0.1l0,0l0.6-0.3l1-0.1l0.1-0.2h0.3l-0.2,0l0.5-0.1l-0.6,0.1c0.7-0.3,1.2-0.5,1.5-0.7c0.3-0.1,0.6-0.3,0.9-0.4
			c0,0-0.1,0-0.1,0l2.3-1.1c0.1,0,0.2-0.1,0.3-0.1l0.1-0.1l0-0.2c-1.5,0.7-2.6,1.2-3.4,1.5c-0.3,0.2-0.6,0.4-1,0.6
			c-0.6,0.3-1.2,0.5-1.6,0.6c-0.5,0.1-0.7,0.1-0.7,0c0,0,0-0.1-0.1-0.1c-0.1,0-0.1-0.1-0.1-0.1c-0.1-0.1,0-0.1,0-0.2
			c0.4-0.4,1.3-1,2.7-1.8l-0.4,0.1c-1.2,0.4-2,0.6-2.4,0.5c-0.3-0.1-0.5-0.2-0.5-0.2S268.5,176.2,269.2,175.7z M273.5,177.7
			c-0.2,0-0.3,0-0.3,0L273.5,177.7z M274.1,175.9c0.5-0.2,1-0.4,1.6-0.7c0,0.1,0,0,0-0.3c-0.3,0.2-0.7,0.4-1.1,0.6
			C274.4,175.6,274.2,175.7,274.1,175.9h-0.2c0,0-0.1,0.1-0.2,0.1c0,0,0.1,0,0.2,0C273.9,176,274,176,274.1,175.9
			c-0.2,0.1-0.2,0.1-0.2,0.1L274.1,175.9z M278.5,163.3c-0.5,1.3-1,2.6-1.3,3.8c-0.3,1.4-0.5,2.9-0.6,4.3c0.2-0.1,0.5-0.3,0.8-0.4v0
			l-0.7,0.3c0.2-0.1,0.5-0.2,0.7-0.3v0c0.1-2.9,0.7-5.8,2-8.8c-0.1,0.2-0.2,0.2-0.2,0.2c-0.1-0.2,0-0.7,0.5-1.5
			c0.2-0.4,0.4-0.8,0.6-1.1c-0.6,1-1.2,2.1-1.7,3.1c-0.1,0.1-0.1,0.2-0.1,0.2S278.5,163.1,278.5,163.3z M277.1,179.7L277.1,179.7
			l-0.4,0.7h0.1L277.1,179.7z M277.6,174.1c-0.3,0.1-0.6,0.3-0.8,0.4c0,0.1,0,0.2,0,0.3c0.4-0.2,0.6-0.2,0.6-0.2
			c0.1,0,0.2-0.1,0.3-0.1C277.6,174.2,277.6,174.1,277.6,174.1z M276.9,175C276.9,175,276.9,175,276.9,175c-0.1,0.1-0.1,0.1-0.1,0.1
			v0l0.1,0l0.5-0.3l0.1-0.1l0.1-0.1v0c-0.2,0.1-0.3,0.2-0.3,0.2S277.2,174.8,276.9,175z M282.9,171.8c0.1,0,0.2-0.1,0.4-0.1
			c0-0.1,0-0.1,0-0.1C283.1,171.6,283,171.7,282.9,171.8L282.9,171.8z M283.2,169.6c0,0,0,0,0,0.2l0.4-0.2c0,0,0-0.1,0-0.3
			c-0.1,0.1-0.1,0.1-0.1,0.1S283.4,169.5,283.2,169.6z M284.3,166.8c-0.1,0-0.1-0.2,0-0.5c-0.3,0.6-0.5,1.2-0.7,1.9
			c0.1,0,0.2-0.1,0.4-0.2C284.1,167.6,284.2,167.2,284.3,166.8C284.3,166.8,284.3,166.8,284.3,166.8z M283.7,171.5
			c0.2-0.1,0.5-0.2,0.7-0.2c0-0.1,0-0.2,0-0.4c-0.2,0.1-0.5,0.3-0.7,0.4v0.1V171.5L283.7,171.5L283.7,171.5z M284,169.4
			c0.2-0.1,0.5-0.2,0.8-0.5c0-0.1,0.1-0.2,0.1-0.3c-0.3,0.2-0.6,0.3-0.8,0.5C284.1,169.1,284.1,169.2,284,169.4z M286.3,163.7
			c-0.8,1.4-1.4,2.7-1.8,4.1c0.4-0.2,0.7-0.3,1-0.5c0.3-0.9,0.8-1.9,1.3-2.8c0.1-0.2,0.2-0.3,0.2-0.2c0,0,0,0.1-0.1,0.3
			c-0.5,0.9-0.9,1.7-1.2,2.6c0.1,0,0.2-0.1,0.2-0.1l0.3-0.1c3.4-2,5.9-3.4,7.4-4.3c1-0.7,1.9-1.3,2.6-1.6l0,0l-0.7,0.3
			c0.2-0.2,0.5-0.3,0.9-0.5c0.4-0.2,0.7-0.4,0.8-0.5H297c-0.1,0-0.1,0-0.1,0c1.6-1.2,3.2-2.5,4.7-3.8c0.7-0.7,1.4-1.3,2-2
			c0.3-0.3,0.6-0.6,0.9-0.9l0.2-0.2l0.1,0l0.1-0.2l0.1-0.1c0.1-0.2,0.1-0.5,0.1-0.7c0-0.4,0.1-0.6,0.1-0.7c-0.1,0.2-0.1,0.4-0.2,0.5
			l0-1c0-0.3-0.1-0.6-0.2-0.8c-0.1-0.2-0.3-0.3-0.7-0.4c-0.2,0-0.4-0.1-0.7-0.1c-0.3-0.1-0.5-0.1-0.7-0.1c-0.2,0.1-0.3,0.1-0.5,0.2
			l-0.3,0.1l-0.4,0.2c-0.8,0.4-1.6,0.9-2.4,1.4c-1.7,1-3.3,2.1-4.7,3.2l-0.2,0.2l-0.1,0.1l-0.4,0.4c-0.3,0.3-0.6,0.7-1,1
			c-0.6,0.7-1.2,1.4-1.9,2.1c-1.3,1.5-2.3,3-3.1,4.4c-0.2,0.4-0.4,0.6-0.5,0.6c-0.1,0,0-0.2,0.2-0.6c1.2-2.1,2.8-4.3,4.7-6.5
			c0.4-0.5,0.9-1,1.4-1.5l0.2-0.2l0,0c0,0,0.1-0.1,0.1-0.1l0,0l0.1-0.1c0.2-0.2,0.5-0.4,0.8-0.6c1.1-0.8,2.2-1.6,3.4-2.4
			c-1,0.6-2,1.2-3,1.9c-0.5,0.3-1,0.7-1.4,1l-0.2,0.1v0l0,0l0,0l-0.1,0l-0.6,0.6c-1.8,1.8-3.4,3.6-4.6,5.3c-0.3,0.5-0.7,1-1,1.5
			L286.3,163.7z M291.4,166.9c-1.5,0.9-3,1.8-4.6,2.7c-1.1,0.6-1.8,1-2.2,1.3c0,0.1,0,0.3,0,0.4l0.1,0c0.5-0.3,1-0.7,1.6-1
			c1.6-0.9,3.1-1.8,4.4-2.6c-0.1,0,0-0.1,0.2-0.3L291.4,166.9z M293.6,163.6l-0.9,0.4l-0.6,0.3c-1.8,1.2-4.2,2.5-7,4.1
			c-0.1,0.2-0.1,0.3-0.1,0.4c1.1-0.6,2.3-1.3,3.6-2c1.4-0.8,2.7-1.7,4.1-2.6l-0.2,0.1L293.6,163.6L293.6,163.6z"/>
	</g>
	<g>
		<g>
			<path class="st0" d="M60.5,224.2c0.6-0.7,1.2-1.3,1.8-1.9c0.6-0.6,1.2-1.1,1.8-1.5c0.6-0.4,1.2-0.7,1.8-1
				c0.6-0.2,1.2-0.3,1.7-0.3c0.4,0,0.9,0.1,1.3,0.2c0.4,0.1,0.8,0.4,1.1,0.7c0.3,0.3,0.6,0.7,0.8,1.2c0.2,0.5,0.3,1,0.3,1.7
				c0,0.9-0.1,1.9-0.4,2.8c-0.3,0.9-0.6,1.8-1,2.7c-0.4,0.9-0.8,1.7-1.3,2.5c-0.4,0.8-0.9,1.6-1.3,2.3c-0.4,0.7-0.7,1.4-1,2.1
				c-0.3,0.7-0.4,1.3-0.4,1.8c0,0.4,0.1,0.7,0.3,0.9c0.2,0.2,0.5,0.3,0.7,0.3c0.5,0,1.1-0.3,1.8-0.9c0.7-0.6,1.4-1.3,2.2-2.3
				c0.8-0.9,1.5-1.9,2.3-3s1.5-2.2,2.2-3.3l1.1,0.8c-0.3,0.4-0.6,1-1,1.6c-0.4,0.7-0.9,1.4-1.4,2.2c-0.5,0.8-1.1,1.6-1.7,2.4
				c-0.6,0.8-1.3,1.5-2,2.2c-0.7,0.6-1.4,1.2-2.2,1.6c-0.7,0.4-1.5,0.6-2.2,0.6c-0.4,0-0.8-0.1-1.2-0.2c-0.4-0.1-0.7-0.3-1-0.6
				c-0.3-0.3-0.5-0.6-0.7-1s-0.3-1-0.3-1.6c0-0.9,0.1-1.7,0.4-2.5c0.3-0.8,0.7-1.6,1.1-2.4c0.5-0.8,0.9-1.6,1.5-2.4
				c0.5-0.8,1-1.6,1.5-2.4c0.5-0.8,0.8-1.6,1.1-2.4s0.4-1.6,0.4-2.4c0-0.4-0.1-0.7-0.2-1c-0.2-0.2-0.5-0.4-0.9-0.4
				c-0.7,0-1.4,0.3-2.2,0.8c-0.8,0.6-1.6,1.3-2.4,2.3s-1.7,2-2.5,3.3c-0.9,1.2-1.7,2.6-2.6,3.9c-0.9,1.4-1.7,2.8-2.5,4.2
				c-0.8,1.4-1.6,2.8-2.4,4.1l-2.5-1.3c1-2.1,2-4.1,2.9-5.7s1.7-3.2,2.4-4.6c0.7-1.4,1.2-2.6,1.6-3.7c0.4-1.1,0.6-2.2,0.6-3.2
				c0-0.2,0-0.4-0.1-0.6c0-0.2-0.1-0.4-0.2-0.5s-0.3-0.3-0.5-0.4c-0.2-0.1-0.4-0.2-0.7-0.2c-0.7,0-1.3,0.3-2,0.9
				c-0.7,0.6-1.4,1.5-2.2,2.5c-0.8,1.1-1.6,2.3-2.5,3.7c-0.9,1.4-1.8,2.9-2.8,4.5c-1,1.6-2.1,3.2-3.3,4.9c-1.2,1.7-2.5,3.3-3.9,4.9
				l-2-1.4c0.6-0.9,1.3-1.9,2-3c0.7-1,1.4-2.1,2.1-3.2c0.7-1.1,1.3-2.2,1.9-3.2c0.6-1.1,1.2-2.1,1.6-3c0.5-1,0.8-1.8,1.1-2.7
				c0.3-0.8,0.4-1.5,0.4-2.1c0-0.7-0.2-1.1-0.5-1.4c-0.3-0.3-0.8-0.4-1.3-0.4c-0.6,0-1.2,0.2-1.8,0.7c-0.6,0.5-1.2,1.1-1.9,1.9
				c-0.7,0.8-1.4,1.8-2.1,3c-0.8,1.1-1.6,2.4-2.6,3.8l-1.1-0.8c1-1.6,2-3.1,2.8-4.4c0.8-1.3,1.6-2.3,2.4-3.2
				c0.7-0.8,1.5-1.5,2.2-1.9c0.7-0.4,1.5-0.6,2.4-0.6c0.3,0,0.6,0,1,0.1c0.4,0.1,0.8,0.3,1.2,0.5c0.4,0.3,0.7,0.6,1,1.1
				c0.3,0.5,0.5,1,0.5,1.7c1.1-1.4,2.2-2.5,3.4-3.4c1.2-0.8,2.3-1.3,3.4-1.3c0.8,0,1.4,0.2,1.9,0.5c0.5,0.3,1,0.7,1.3,1.2
				c0.3,0.5,0.6,1,0.7,1.7c0.1,0.6,0.2,1.2,0.2,1.9c0,0.2,0,0.3,0,0.5C60.5,223.9,60.5,224,60.5,224.2z"/>
			<path class="st0" d="M88.1,233.8c-0.9,1.1-1.8,2-2.7,2.9c-0.9,0.9-1.8,1.7-2.6,2.3c-0.9,0.6-1.7,1.1-2.6,1.5
				c-0.9,0.4-1.7,0.5-2.6,0.5c-0.7,0-1.4-0.1-2-0.4c-0.6-0.3-1.1-0.6-1.6-1.1c-0.4-0.5-0.8-1.1-1-1.8c-0.2-0.7-0.4-1.5-0.4-2.3
				c0-1.4,0.3-2.7,0.9-4.2c0.6-1.4,1.4-2.8,2.3-4.2c0.9-1.4,1.9-2.6,3-3.9c1.1-1.2,2.2-2.3,3.2-3.2l1.3,0.9c-0.7,1-1.5,2.2-2.4,3.5
				c-0.9,1.3-1.7,2.7-2.5,4.1c-0.8,1.4-1.4,2.8-2,4.2c-0.5,1.4-0.8,2.7-0.8,3.9c0,0.8,0.2,1.5,0.5,2.1c0.3,0.6,0.9,0.9,1.8,0.9
				c0.9,0,2-0.4,3.1-1.1c1.1-0.7,2.3-1.7,3.5-2.9c1.2-1.2,2.4-2.5,3.6-4c1.2-1.5,2.3-3,3.4-4.6c1.1-1.5,2-3,2.9-4.4
				c0.9-1.4,1.6-2.6,2.1-3.6l2.1,1.1c-1.1,2.2-2.2,4.3-3.3,6.3c-1.1,1.9-2,3.7-2.8,5.2c-0.8,1.5-1.5,2.9-1.9,4s-0.7,2-0.7,2.7
				c0,0.3,0.1,0.5,0.2,0.7c0.1,0.2,0.3,0.3,0.6,0.3c0.7,0,1.5-0.3,2.4-0.9c0.9-0.6,1.8-1.5,2.7-2.4c0.9-1,1.8-2.1,2.6-3.2
				c0.9-1.2,1.6-2.3,2.3-3.3l1.1,0.8c-0.1,0.2-0.4,0.6-0.7,1.2c-0.4,0.6-0.8,1.3-1.4,2.1c-0.5,0.8-1.2,1.6-1.9,2.5
				c-0.7,0.9-1.5,1.7-2.2,2.4c-0.8,0.7-1.6,1.3-2.4,1.8c-0.8,0.5-1.7,0.7-2.5,0.7c-0.5,0-1-0.1-1.4-0.3c-0.4-0.2-0.7-0.4-1-0.7
				c-0.3-0.3-0.5-0.6-0.6-1c-0.2-0.4-0.2-0.8-0.2-1.2c0-0.5,0.1-1.1,0.3-1.7C87.5,235.2,87.8,234.5,88.1,233.8z"/>
			<path class="st0" d="M116.1,221.4c0-0.6-0.3-1.1-0.8-1.5c-0.5-0.4-1.3-0.5-2.4-0.5c-0.9,0-1.8,0.2-2.7,0.6s-1.8,0.9-2.6,1.6
				c-0.8,0.7-1.6,1.5-2.3,2.4c-0.7,0.9-1.3,1.9-1.9,3s-0.9,2.2-1.2,3.4c-0.3,1.2-0.5,2.4-0.5,3.6c0,1,0.1,1.8,0.3,2.5
				c0.2,0.7,0.5,1.2,0.9,1.7c0.4,0.4,0.9,0.7,1.4,0.9c0.5,0.2,1.2,0.3,1.9,0.3c1.4,0,2.7-0.3,3.9-0.9c1.3-0.6,2.5-1.4,3.6-2.4
				s2.2-2.1,3.2-3.3c1-1.2,1.8-2.4,2.6-3.5l1.1,0.8c-1.1,1.8-2.2,3.4-3.4,4.7c-1.2,1.3-2.4,2.5-3.7,3.4c-1.3,0.9-2.5,1.6-3.8,2
				c-1.3,0.5-2.6,0.7-3.8,0.7c-1,0-1.9-0.1-2.8-0.4c-0.9-0.3-1.7-0.7-2.4-1.3c-0.7-0.6-1.2-1.4-1.6-2.3s-0.6-2.1-0.6-3.4
				c0-1.5,0.2-3,0.7-4.3c0.4-1.4,1-2.6,1.8-3.8c0.7-1.2,1.6-2.2,2.5-3.1c1-0.9,2-1.7,3-2.4c1.1-0.6,2.1-1.1,3.2-1.5
				c1.1-0.3,2.1-0.5,3-0.5c1,0,1.7,0.1,2.4,0.4c0.6,0.3,1.1,0.6,1.4,1s0.6,0.8,0.7,1.2c0.1,0.4,0.2,0.8,0.2,1.1c0,0.5-0.1,1-0.2,1.5
				c-0.1,0.5-0.3,1-0.6,1.5c-0.2,0.4-0.6,0.8-0.9,1.1c-0.4,0.3-0.8,0.4-1.2,0.4c-0.4,0-0.8-0.1-1.1-0.4c-0.3-0.3-0.5-0.6-0.5-1.1
				c0,0,0-0.1,0-0.4c0-0.2,0.1-0.4,0.3-0.7c0.2-0.2,0.4-0.5,0.7-0.7c0.3-0.2,0.8-0.3,1.4-0.3h0.4
				C116.1,222.1,116.1,221.7,116.1,221.4z"/>
			<path class="st0" d="M122.6,228.7c1-1.4,2.1-2.7,3.2-3.9s2.2-2.2,3.4-3.1c1.1-0.9,2.3-1.5,3.4-2c1.1-0.5,2.2-0.7,3.2-0.7
				c0.7,0,1.3,0.1,1.8,0.3s0.8,0.5,1.1,0.8c0.3,0.3,0.5,0.7,0.6,1.1c0.1,0.4,0.2,0.8,0.2,1.2c0,0.7-0.1,1.5-0.4,2.3
				s-0.7,1.7-1.1,2.5s-0.9,1.8-1.4,2.7c-0.5,0.9-1,1.8-1.4,2.7s-0.8,1.7-1.1,2.6c-0.3,0.8-0.4,1.6-0.4,2.3c0,0.5,0.1,0.9,0.3,1.3
				c0.2,0.4,0.6,0.6,1.1,0.6c0.6,0,1.3-0.3,2.1-1c0.8-0.6,1.5-1.5,2.3-2.4c0.8-1,1.6-2.1,2.4-3.3c0.8-1.2,1.5-2.4,2.2-3.6l1.1,0.8
				c-0.2,0.3-0.5,0.8-0.9,1.4c-0.4,0.7-0.8,1.4-1.3,2.2c-0.5,0.8-1.1,1.7-1.7,2.5c-0.6,0.9-1.3,1.7-2,2.4c-0.7,0.7-1.4,1.3-2.2,1.8
				s-1.5,0.7-2.3,0.7c-0.5,0-1-0.1-1.5-0.2c-0.5-0.1-1-0.3-1.4-0.6c-0.4-0.3-0.7-0.7-1-1.3c-0.3-0.5-0.4-1.2-0.4-2
				c0-1,0.2-1.9,0.5-2.9s0.7-2,1.2-2.9c0.5-1,1-1.9,1.6-2.8s1.1-1.8,1.6-2.6c0.5-0.8,0.9-1.5,1.2-2.2c0.3-0.7,0.5-1.2,0.5-1.7
				c0-0.8-0.4-1.2-1.2-1.2c-1.1,0-2.3,0.4-3.5,1.1s-2.5,1.7-3.8,2.9c-1.3,1.2-2.5,2.5-3.7,4c-1.2,1.5-2.4,2.9-3.4,4.4l-4.5,8.4
				l-2.7-1.1c2.5-5.4,4.9-10.8,7.2-16.1c2.3-5.3,4.7-10.6,7.1-15.7c0.4-0.8,0.8-1.7,1.3-2.6c0.5-0.9,1-1.9,1.6-2.8
				c0.6-0.9,1.2-1.8,1.9-2.7c0.7-0.9,1.4-1.6,2.1-2.3c0.7-0.7,1.4-1.2,2.2-1.6c0.8-0.4,1.5-0.6,2.3-0.6c0.9,0,1.5,0.2,2,0.7
				c0.5,0.5,0.7,1.2,0.7,2c0,0.9-0.2,2-0.7,3.1c-0.5,1.2-1.1,2.4-2,3.7s-1.8,2.6-2.9,4c-1.1,1.4-2.2,2.7-3.4,4.1
				c-1.2,1.4-2.4,2.7-3.7,3.9c-1.2,1.3-2.4,2.4-3.6,3.5L122.6,228.7z M139.9,197.3c-0.9,0-1.7,0.3-2.4,1s-1.5,1.8-2.4,3.3
				c-0.9,1.6-1.9,3.6-3,6.1c-1.1,2.5-2.5,5.6-4.1,9.2c2.2-2.1,4.1-4.1,5.7-6.1c1.6-2,3-3.8,4-5.4s1.9-3,2.4-4.3
				c0.5-1.2,0.8-2.1,0.8-2.7c0-0.4-0.1-0.6-0.3-0.8C140.5,197.4,140.2,197.3,139.9,197.3z"/>
			<path class="st0" d="M159.4,232.2c0.1,0,0.2,0,0.2,0c0.1,0,0.2,0,0.3,0c0.5,0,1.1-0.1,1.5-0.2c0.5-0.1,0.9-0.3,1.3-0.5
				c0.4-0.2,0.8-0.5,1.1-0.9s0.7-0.8,1-1.4l1.1,0.8c-0.9,1.3-1.9,2.3-2.9,2.8c-1,0.5-2.1,0.8-3.2,0.8c-0.4,0-0.8,0-1.1-0.1
				c-0.8,1.4-1.7,2.6-2.7,3.6c-1,1-1.9,1.8-2.9,2.4c-1,0.6-2,1.1-3,1.4c-1,0.3-1.9,0.4-2.7,0.4c-0.9,0-1.7-0.2-2.4-0.5
				c-0.7-0.3-1.4-0.7-1.9-1.3s-0.9-1.2-1.2-2s-0.4-1.7-0.4-2.7c0-1,0.2-2,0.5-3c0.3-1,0.7-2,1.3-3c0.5-1,1.2-2,1.9-2.9
				c0.7-0.9,1.5-1.8,2.4-2.6c0.8-0.8,1.7-1.5,2.6-2.2c0.9-0.6,1.8-1.2,2.7-1.6l0.9,1.2c-1,0.7-2.1,1.7-3.2,2.8s-2,2.4-2.9,3.7
				c-0.9,1.4-1.6,2.8-2.2,4.2s-0.8,2.9-0.8,4.3c0,1.2,0.3,2.2,0.8,2.9c0.5,0.7,1.4,1,2.5,1c0.9,0,1.7-0.2,2.6-0.5s1.7-0.8,2.5-1.4
				s1.6-1.3,2.3-2.2c0.7-0.8,1.5-1.7,2.1-2.7c-0.6-0.3-1.1-0.8-1.5-1.3s-0.8-1.2-1.1-1.9c-0.3-0.7-0.5-1.5-0.7-2.3
				c-0.1-0.8-0.2-1.7-0.2-2.5c0-0.9,0.1-1.7,0.3-2.4s0.5-1.4,0.9-2s0.8-1,1.3-1.4c0.5-0.3,1.1-0.5,1.7-0.5c0.5,0,1,0.1,1.5,0.4
				c0.4,0.3,0.8,0.7,1.1,1.2c0.3,0.5,0.5,1.1,0.7,1.8c0.2,0.7,0.2,1.4,0.2,2.2c0,0.6,0,1.2-0.1,1.9c-0.1,0.7-0.2,1.4-0.4,2.1
				c-0.2,0.7-0.4,1.4-0.7,2.1C160.1,231.1,159.7,231.7,159.4,232.2z M155.4,224.9c0,0.6,0,1.2,0.1,1.9c0.1,0.7,0.3,1.3,0.5,1.9
				c0.2,0.6,0.5,1.2,0.8,1.8s0.7,1,1.2,1.3c0.4-0.7,0.7-1.4,0.9-2.1c0.2-0.7,0.5-1.4,0.6-2.1c0.2-0.7,0.3-1.3,0.4-1.9
				c0.1-0.6,0.1-1.1,0.1-1.5c0-0.6,0-1.1-0.1-1.6c-0.1-0.5-0.2-0.9-0.4-1.3c-0.2-0.4-0.4-0.6-0.6-0.9c-0.2-0.2-0.5-0.3-0.8-0.3
				c-0.4,0-0.8,0.1-1.1,0.4c-0.3,0.3-0.6,0.6-0.9,1.1c-0.2,0.4-0.4,1-0.5,1.5C155.4,223.7,155.4,224.3,155.4,224.9z"/>
			<path class="st0" d="M193.2,233.7c-0.8,0.8-1.5,1.6-2.3,2.3c-0.8,0.7-1.6,1.3-2.3,1.9s-1.5,0.9-2.3,1.3s-1.4,0.5-2.1,0.5
				c-0.8,0-1.5-0.1-2.1-0.4c-0.6-0.3-1.1-0.7-1.6-1.2c-0.4-0.5-0.8-1.2-1-1.9c-0.2-0.7-0.4-1.5-0.4-2.4c0-1.2,0.2-2.4,0.7-3.7
				c0.5-1.3,1.1-2.5,1.9-3.7c0.8-1.2,1.6-2.4,2.6-3.4c1-1.1,1.9-2,2.8-2.8l1.3,0.9c-0.2,0.3-0.6,0.8-1,1.4c-0.4,0.6-0.9,1.3-1.3,2
				c-0.5,0.8-0.9,1.6-1.4,2.5c-0.5,0.9-0.9,1.8-1.3,2.8c-0.4,0.9-0.7,1.9-1,2.8c-0.2,0.9-0.4,1.8-0.4,2.7c0,0.4,0,0.8,0.1,1.1
				c0.1,0.4,0.2,0.7,0.4,1c0.2,0.3,0.4,0.5,0.7,0.6c0.3,0.2,0.6,0.2,1.1,0.2c0.7,0,1.4-0.2,2.3-0.6c0.8-0.4,1.7-1,2.5-1.7
				s1.8-1.6,2.7-2.6c0.9-1,1.8-2,2.7-3.2s1.7-2.3,2.6-3.5c0.8-1.2,1.6-2.4,2.3-3.5c0.6-1,1.3-2.1,1.9-3.1c0.6-1.1,1.3-2.1,1.9-3.1
				l1.4,0.7c0,0-0.2,0.4-0.5,1.1s-0.8,1.6-1.4,2.8c-0.6,1.2-1.2,2.6-2,4.1c-0.8,1.6-1.6,3.2-2.4,5c-0.8,1.8-1.7,3.6-2.6,5.4
				c-0.9,1.8-1.7,3.6-2.5,5.4c2.8-1.5,5.3-3.3,7.5-5.4c2.2-2.1,4.2-4.3,5.8-6.6l1.1,0.8c-1.7,2.6-3.8,5-6.4,7.2s-5.6,4.3-9.2,6.3
				c-1.6,3.5-3.2,6.7-4.8,9.6c-1.6,2.9-3.1,5.4-4.7,7.4c-1.6,2.1-3.1,3.7-4.7,4.8c-1.6,1.1-3.1,1.7-4.8,1.7c-1.1,0-1.9-0.4-2.7-1.1
				s-1.1-1.7-1.1-3c0-1.1,0.2-2.2,0.7-3.4c0.5-1.2,1.2-2.3,2-3.5c0.9-1.2,1.9-2.3,3.1-3.5c1.2-1.1,2.5-2.3,3.9-3.3
				c1.4-1.1,2.9-2.1,4.4-3c1.5-1,3.1-1.8,4.7-2.7c0.4-0.9,0.9-1.8,1.3-2.7c0.5-1,0.9-1.9,1.4-2.8c0.5-0.9,0.9-1.7,1.3-2.5
				S192.9,234.2,193.2,233.7z M186.7,246.6c-2.3,1.4-4.4,2.9-6.3,4.5c-1.9,1.6-3.6,3.1-5,4.7c-1.4,1.5-2.5,3-3.3,4.3
				s-1.2,2.5-1.2,3.4c0,0.6,0.2,1.1,0.5,1.5s0.8,0.6,1.4,0.6c0.8,0,1.6-0.3,2.4-0.8c0.8-0.5,1.6-1.2,2.4-2.1c0.8-0.9,1.6-2,2.4-3.2
				c0.8-1.2,1.6-2.5,2.4-3.9s1.5-2.9,2.3-4.4C185.4,249.6,186.1,248.1,186.7,246.6z"/>
			<path class="st0" d="M238.5,226.9c-0.7-0.2-1.4-0.4-1.9-0.8s-1-0.7-1.3-1.1s-0.6-0.8-0.7-1.3c-0.2-0.5-0.2-0.9-0.2-1.4
				c0-1,0.3-1.7,0.8-2.3s1.2-0.8,2.1-0.8c0.5,0,1,0.1,1.4,0.4c0.4,0.3,0.7,0.7,1,1.1c0.3,0.5,0.4,1,0.6,1.6c0.1,0.6,0.2,1.3,0.2,1.9
				c0,0.5,0,0.9-0.1,1.3c0,0.4-0.1,0.9-0.2,1.3c-0.5,2.1-1.2,4-2.1,5.8c-0.9,1.7-1.9,3.2-3.1,4.4c-1.1,1.2-2.4,2.2-3.7,2.8
				s-2.6,1-3.8,1c-0.8,0-1.6-0.1-2.4-0.4c-0.8-0.2-1.4-0.6-2-1.2s-1-1.3-1.4-2.2c-0.3-0.9-0.5-2-0.5-3.3c0-1.6,0.3-3.6,1-5.8
				c0.6-2.3,1.7-4.9,3.3-8c2.2-4.3,4.4-8.1,6.6-11.5c0.9-1.4,1.9-2.8,3-4.2c1-1.4,2.1-2.6,3.1-3.7c1.1-1.1,2.1-1.9,3.1-2.6
				c1-0.7,2-1,2.9-1c0.1,0,0.3,0,0.6,0.1c0.3,0,0.6,0.1,0.9,0.3c0.3,0.2,0.6,0.4,0.8,0.8c0.2,0.3,0.4,0.8,0.4,1.4
				c0,0.7-0.2,1.6-0.6,2.8s-1,2.3-1.7,3.7s-1.7,2.8-2.8,4.3c-1.1,1.5-2.4,3-3.8,4.6s-3,3-4.8,4.5c-1.8,1.5-3.7,2.8-5.7,4.1
				c-0.7,1.5-1.3,2.8-1.7,4c-0.5,1.2-0.8,2.3-1.1,3.3c-0.3,1-0.5,1.8-0.6,2.6c-0.1,0.7-0.2,1.4-0.2,1.9c0,0.8,0.1,1.4,0.3,1.9
				c0.2,0.5,0.5,0.9,0.8,1.2c0.4,0.3,0.8,0.5,1.2,0.6c0.5,0.1,0.9,0.2,1.4,0.2c0.9,0,1.8-0.2,2.7-0.7c0.9-0.5,1.7-1.1,2.5-1.8
				c0.8-0.8,1.5-1.6,2.2-2.5c0.7-0.9,1.2-1.9,1.7-2.8c0.5-0.9,0.9-1.8,1.2-2.7C238.2,228.1,238.4,227.4,238.5,226.9z M228.6,221.1
				c1.8-1.2,3.5-2.5,5-3.9c1.5-1.4,2.9-2.8,4.1-4.1c1.2-1.4,2.3-2.7,3.3-4.1c0.9-1.3,1.7-2.6,2.4-3.7c0.6-1.2,1.1-2.2,1.4-3.1
				c0.3-0.9,0.5-1.7,0.5-2.2c0-0.5-0.2-0.8-0.6-0.8c-0.7,0-1.6,0.4-2.5,1.1s-2.1,2-3.4,3.7c-1.3,1.7-2.8,4-4.5,6.8
				C232.6,213.6,230.7,217.1,228.6,221.1z M238.7,225.3c0-0.2,0-0.4,0-0.5s0-0.3,0-0.5c0-1.1-0.1-1.9-0.4-2.6c-0.3-0.6-0.7-1-1.2-1
				c-0.1,0-0.3,0-0.4,0s-0.3,0.1-0.4,0.2c-0.1,0.1-0.3,0.3-0.4,0.5c-0.1,0.2-0.1,0.5-0.1,0.8c0,0.8,0.3,1.5,0.8,2
				S237.9,225.1,238.7,225.3z"/>
			<path class="st0" d="M249.4,220.7c-0.3,0.5-0.6,1.2-1.1,2c-0.5,0.8-1,1.7-1.5,2.7c-0.5,1-1.1,2-1.6,3.1s-1,2.2-1.5,3.2
				c-0.4,1-0.8,2-1.1,2.9c-0.3,0.9-0.4,1.7-0.4,2.3c0,0.6,0.1,1,0.4,1.2s0.6,0.3,1,0.3c0.8,0,1.6-0.3,2.4-0.8
				c0.8-0.5,1.5-1.2,2.3-2.1c0.8-0.9,1.5-1.8,2.2-2.9c0.7-1.1,1.5-2.2,2.2-3.3l1.1,0.8c-0.6,1-1.2,2.1-1.9,3.3
				c-0.7,1.2-1.5,2.2-2.4,3.2c-0.9,1-1.9,1.8-2.9,2.5c-1.1,0.6-2.2,1-3.5,1c-1.2,0-2.1-0.4-2.7-1.1c-0.6-0.7-0.9-1.6-0.9-2.7
				c0-1.3,0.3-2.7,0.9-4.1c0.6-1.4,1.4-2.9,2.3-4.3c0.9-1.4,1.9-2.8,3-4s2.1-2.5,3-3.5L249.4,220.7z M254.9,214.1
				c0,0.4-0.1,0.8-0.3,1.2c-0.2,0.4-0.4,0.8-0.8,1.1c-0.3,0.3-0.6,0.6-1,0.8s-0.7,0.3-1.1,0.3c-0.3,0-0.6-0.1-0.8-0.4
				c-0.2-0.2-0.3-0.5-0.3-0.9c0-0.3,0.1-0.7,0.2-1.1c0.1-0.4,0.3-0.8,0.5-1.2s0.5-0.7,0.9-1c0.3-0.3,0.7-0.4,1.1-0.4
				c0.4,0,0.8,0.2,1.1,0.5C254.8,213.4,254.9,213.8,254.9,214.1z"/>
			<path class="st0" d="M253.7,233.5c0,0.2-0.1,0.5-0.1,0.7c0,0.2,0,0.5,0,0.7c0,0.7,0.1,1.4,0.3,2c0.2,0.6,0.5,1.2,0.9,1.7
				c0.4,0.5,0.9,0.9,1.5,1.1c0.6,0.3,1.3,0.4,2,0.4c2.6,0,5.1-0.9,7.5-2.6c2.4-1.7,4.8-4.5,7.2-8.3l1,0.9c-1.3,2.2-2.6,4-3.9,5.5
				s-2.7,2.7-4,3.6c-1.3,0.9-2.6,1.6-3.9,2c-1.3,0.4-2.5,0.6-3.7,0.6c-0.8,0-1.7-0.1-2.7-0.4c-0.9-0.2-1.8-0.6-2.6-1.2
				c-0.8-0.5-1.5-1.3-2-2.2c-0.5-0.9-0.8-2.1-0.8-3.4c0-1.5,0.3-2.9,0.8-4.3c0.5-1.4,1.2-2.6,2-3.8c0.8-1.2,1.7-2.3,2.8-3.2
				c1-1,2.1-1.8,3.2-2.5c1.1-0.7,2.1-1.2,3.1-1.6c1-0.4,1.9-0.6,2.7-0.6c0.5,0,1,0.1,1.6,0.2s1,0.4,1.4,0.7c0.4,0.3,0.8,0.8,1,1.3
				c0.3,0.5,0.4,1.2,0.4,2c0,1-0.2,2-0.7,2.9c-0.5,0.9-1.1,1.8-1.9,2.5c-0.8,0.8-1.7,1.5-2.8,2.1c-1.1,0.6-2.2,1.1-3.3,1.6
				c-1.2,0.4-2.3,0.8-3.5,1C255.9,233.4,254.8,233.5,253.7,233.5z M254,232.3c1.3-0.1,2.6-0.4,3.7-0.8c1.2-0.4,2.2-0.9,3.2-1.5
				s1.8-1.3,2.6-2s1.4-1.4,1.9-2.2c0.5-0.7,0.9-1.4,1.2-2.1c0.3-0.7,0.4-1.3,0.4-1.8s-0.1-1-0.4-1.3c-0.3-0.3-0.6-0.5-1-0.5
				c-0.9,0-1.8,0.3-2.9,0.9c-1.1,0.6-2.2,1.5-3.2,2.6c-1.1,1.1-2.1,2.4-3,3.8C255.3,229,254.6,230.6,254,232.3z"/>
			<path class="st0" d="M297.5,225c0,0.8-0.1,1.7-0.4,2.6c-0.3,0.9-0.7,1.7-1.1,2.6c-0.5,0.9-0.9,1.7-1.4,2.6
				c-0.5,0.8-1,1.7-1.4,2.4c-0.5,0.8-0.8,1.5-1.1,2.3s-0.4,1.4-0.4,2c0,0.5,0.1,0.8,0.3,0.9c0.2,0.2,0.4,0.2,0.6,0.2
				c0.7,0,1.6-0.4,2.5-1.1s1.9-1.7,2.8-2.8c1-1.1,1.9-2.3,2.8-3.7c0.9-1.3,1.8-2.6,2.6-3.7l1.1,0.8c-0.2,0.2-0.4,0.7-0.9,1.4
				c-0.4,0.7-0.9,1.5-1.5,2.4c-0.6,0.9-1.3,1.8-2,2.8c-0.8,1-1.6,1.9-2.4,2.7c-0.9,0.8-1.8,1.5-2.7,2s-1.8,0.8-2.8,0.8
				c-0.5,0-1-0.1-1.4-0.3s-0.8-0.4-1.1-0.7c-0.3-0.3-0.5-0.7-0.7-1.1s-0.3-0.9-0.3-1.3c0-0.8,0.2-1.6,0.5-2.5s0.8-1.8,1.3-2.8
				s1.1-1.9,1.7-2.8c0.6-1,1.2-1.9,1.7-2.7c0.5-0.9,0.9-1.7,1.3-2.4c0.3-0.7,0.5-1.4,0.5-1.9c0-0.6-0.2-1.1-0.5-1.5
				s-0.8-0.6-1.4-0.6c-0.6,0-1.4,0.3-2.2,0.8c-0.8,0.5-1.7,1.3-2.8,2.3c-1,1-2.1,2.2-3.3,3.7c-1.2,1.5-2.5,3.1-3.9,5
				c-0.8,1.1-1.6,2.1-2.4,3.1c-0.3,0.4-0.7,0.9-1,1.3c-0.3,0.5-0.7,0.9-1,1.3c-0.3,0.4-0.6,0.9-0.9,1.3c-0.3,0.4-0.6,0.8-0.8,1
				l-2.6-1.1l3.4-4.7c0.5-0.7,1-1.4,1.5-2.2c0.5-0.8,1-1.6,1.5-2.4c0.5-0.8,1-1.6,1.4-2.5c0.5-0.8,0.9-1.6,1.3-2.4
				c0.6-1.2,1-2.2,1.2-2.9c0.2-0.8,0.3-1.4,0.3-1.9c0-0.5-0.1-0.9-0.3-1s-0.5-0.3-0.8-0.3c-0.4,0-0.8,0.2-1.3,0.6s-1,0.9-1.5,1.5
				s-1,1.3-1.5,2c-0.5,0.8-1,1.5-1.5,2.3c-0.5,0.7-0.9,1.5-1.3,2.1c-0.4,0.7-0.8,1.2-1,1.6l-1.1-0.8c1-1.6,1.9-3,2.7-4.3
				c0.8-1.3,1.6-2.4,2.4-3.4c0.8-0.9,1.5-1.7,2.2-2.2c0.7-0.5,1.5-0.8,2.3-0.8c0.4,0,0.8,0.1,1.3,0.3s0.8,0.4,1.1,0.8
				c0.3,0.3,0.5,0.8,0.7,1.3c0.2,0.5,0.3,1.1,0.3,1.7c0,0.5-0.1,1-0.2,1.6c0.9-0.8,1.7-1.5,2.4-2.1c0.7-0.5,1.4-1,2.1-1.3
				c0.6-0.3,1.2-0.6,1.7-0.7c0.5-0.1,1-0.2,1.4-0.2c0.4,0,0.8,0.1,1.3,0.2c0.5,0.1,1,0.4,1.4,0.8c0.4,0.4,0.8,0.9,1.1,1.5
				C297.3,223.1,297.5,223.9,297.5,225z"/>
		</g>
	</g>
</g>
</svg>
